<?xml version="1.0" encoding="utf-8"?>
<!-- Generator: Adobe Illustrator 16.0.0, SVG Export Plug-In . SVG Version: 6.00 Build 0)  -->
<!DOCTYPE svg PUBLIC "-//W3C//DTD SVG 1.1 Tiny//EN" "http://www.w3.org/Graphics/SVG/1.1/DTD/svg11-tiny.dtd">
<svg version="1.1" baseProfile="tiny" id="Layer_1" xmlns="http://www.w3.org/2000/svg" xmlns:xlink="http://www.w3.org/1999/xlink"
	 x="0px" y="0px" width="565.056px" height="164.739px" viewBox="0 0 565.056 164.739" xml:space="preserve">
<g>
	<path d="M182.393,80.774v37.936H170.85V80.774h-13.5v-9.855h38.543v9.855H182.393z"/>
	<path d="M193.598,89.685c1.979-1.89,4.286-3.308,6.919-4.252c2.632-0.945,5.321-1.417,8.066-1.417c2.835,0,5.231,0.349,7.189,1.046
		c1.958,0.698,3.544,1.778,4.759,3.24c1.215,1.463,2.103,3.308,2.667,5.536c0.562,2.228,0.844,4.871,0.844,7.931v16.943h-10.125
		v-3.577h-0.202c-0.855,1.395-2.15,2.475-3.881,3.239c-1.733,0.765-3.612,1.147-5.637,1.147c-1.35,0-2.745-0.18-4.185-0.54
		c-1.441-0.359-2.757-0.944-3.949-1.755c-1.193-0.81-2.172-1.89-2.937-3.24c-0.766-1.35-1.147-3.014-1.147-4.995
		c0-2.43,0.664-4.387,1.991-5.872c1.327-1.485,3.038-2.633,5.13-3.442c2.092-0.811,4.421-1.351,6.986-1.62
		c2.565-0.271,5.063-0.405,7.493-0.405v-0.54c0-1.664-0.585-2.891-1.755-3.679c-1.171-0.787-2.61-1.182-4.32-1.182
		c-1.576,0-3.095,0.338-4.556,1.013c-1.463,0.676-2.712,1.485-3.747,2.43L193.598,89.685z M213.916,104.063h-1.417
		c-1.215,0-2.441,0.057-3.679,0.168c-1.238,0.113-2.34,0.327-3.308,0.642c-0.968,0.315-1.767,0.776-2.396,1.384
		c-0.63,0.607-0.945,1.407-0.945,2.396c0,0.631,0.146,1.171,0.438,1.62c0.292,0.45,0.664,0.81,1.114,1.08
		c0.45,0.27,0.967,0.462,1.553,0.573c0.584,0.113,1.147,0.169,1.688,0.169c2.25,0,3.971-0.618,5.164-1.856
		c1.192-1.237,1.789-2.913,1.789-5.028V104.063z"/>
	<path d="M252.054,95.017c-0.901-0.854-1.958-1.575-3.172-2.159c-1.215-0.585-2.498-0.878-3.848-0.878
		c-1.036,0-1.992,0.203-2.869,0.608s-1.316,1.103-1.316,2.093c0,0.944,0.483,1.62,1.451,2.024c0.967,0.405,2.531,0.855,4.691,1.351
		c1.259,0.27,2.531,0.652,3.813,1.147c1.283,0.495,2.441,1.147,3.477,1.957c1.035,0.811,1.867,1.801,2.498,2.971
		c0.63,1.171,0.945,2.564,0.945,4.185c0,2.116-0.428,3.905-1.282,5.366c-0.855,1.463-1.969,2.645-3.341,3.544
		c-1.374,0.901-2.914,1.553-4.624,1.958c-1.711,0.405-3.42,0.607-5.13,0.607c-2.746,0-5.434-0.438-8.067-1.316
		c-2.632-0.878-4.826-2.171-6.581-3.881l6.21-6.548c0.989,1.08,2.205,1.98,3.645,2.7c1.44,0.72,2.97,1.08,4.59,1.08
		c0.899,0,1.789-0.214,2.666-0.642c0.878-0.427,1.316-1.182,1.316-2.262c0-1.034-0.54-1.799-1.62-2.295
		c-1.08-0.494-2.768-1.013-5.063-1.553c-1.171-0.27-2.34-0.629-3.51-1.08c-1.17-0.449-2.217-1.057-3.139-1.822
		c-0.923-0.765-1.677-1.71-2.261-2.835c-0.585-1.124-0.877-2.475-0.877-4.05c0-2.025,0.427-3.747,1.282-5.164
		c0.854-1.417,1.958-2.576,3.308-3.477c1.35-0.899,2.846-1.563,4.489-1.991c1.642-0.427,3.273-0.641,4.894-0.641
		c2.52,0,4.983,0.395,7.392,1.181c2.407,0.788,4.443,1.969,6.109,3.544L252.054,95.017z"/>
	<path d="M300.249,118.71h-13.702l-11.003-16.133h-0.203v16.133h-11.138V67.679h11.138V98.73h0.203l10.733-13.635h13.433
		l-12.961,15.188L300.249,118.71z"/>
	<path d="M321.782,118.71V70.919h11.61v47.792H321.782z"/>
	<path d="M362.417,95.017c-0.9-0.854-1.957-1.575-3.172-2.159c-1.215-0.585-2.498-0.878-3.848-0.878
		c-1.036,0-1.991,0.203-2.869,0.608c-0.877,0.405-1.316,1.103-1.316,2.093c0,0.944,0.483,1.62,1.451,2.024
		c0.968,0.405,2.531,0.855,4.691,1.351c1.26,0.27,2.531,0.652,3.814,1.147c1.282,0.495,2.44,1.147,3.477,1.957
		c1.034,0.811,1.866,1.801,2.497,2.971c0.63,1.171,0.945,2.564,0.945,4.185c0,2.116-0.429,3.905-1.283,5.366
		c-0.854,1.463-1.969,2.645-3.341,3.544c-1.373,0.901-2.914,1.553-4.624,1.958c-1.711,0.405-3.42,0.607-5.13,0.607
		c-2.746,0-5.435-0.438-8.066-1.316c-2.633-0.878-4.826-2.171-6.582-3.881l6.211-6.548c0.989,1.08,2.204,1.98,3.645,2.7
		c1.439,0.72,2.97,1.08,4.59,1.08c0.9,0,1.789-0.214,2.667-0.642c0.877-0.427,1.316-1.182,1.316-2.262
		c0-1.034-0.54-1.799-1.62-2.295c-1.08-0.494-2.768-1.013-5.063-1.553c-1.171-0.27-2.341-0.629-3.511-1.08
		c-1.171-0.449-2.217-1.057-3.139-1.822c-0.923-0.765-1.677-1.71-2.262-2.835c-0.585-1.124-0.877-2.475-0.877-4.05
		c0-2.025,0.427-3.747,1.282-5.164c0.854-1.417,1.958-2.576,3.308-3.477c1.351-0.899,2.846-1.563,4.489-1.991
		c1.642-0.427,3.273-0.641,4.894-0.641c2.52,0,4.983,0.395,7.392,1.181c2.407,0.788,4.443,1.969,6.108,3.544L362.417,95.017z"/>
	<path d="M394.276,95.017c-0.9-0.854-1.957-1.575-3.172-2.159c-1.215-0.585-2.498-0.878-3.848-0.878
		c-1.036,0-1.991,0.203-2.869,0.608c-0.877,0.405-1.316,1.103-1.316,2.093c0,0.944,0.483,1.62,1.451,2.024
		c0.968,0.405,2.531,0.855,4.691,1.351c1.26,0.27,2.531,0.652,3.814,1.147c1.282,0.495,2.44,1.147,3.477,1.957
		c1.034,0.811,1.866,1.801,2.497,2.971c0.63,1.171,0.945,2.564,0.945,4.185c0,2.116-0.429,3.905-1.283,5.366
		c-0.854,1.463-1.969,2.645-3.341,3.544c-1.373,0.901-2.914,1.553-4.624,1.958c-1.711,0.405-3.42,0.607-5.13,0.607
		c-2.746,0-5.435-0.438-8.066-1.316c-2.633-0.878-4.826-2.171-6.582-3.881l6.211-6.548c0.989,1.08,2.204,1.98,3.645,2.7
		c1.439,0.72,2.97,1.08,4.59,1.08c0.9,0,1.789-0.214,2.667-0.642c0.877-0.427,1.316-1.182,1.316-2.262
		c0-1.034-0.54-1.799-1.62-2.295c-1.08-0.494-2.768-1.013-5.063-1.553c-1.171-0.27-2.341-0.629-3.511-1.08
		c-1.171-0.449-2.217-1.057-3.139-1.822c-0.923-0.765-1.677-1.71-2.262-2.835c-0.585-1.124-0.877-2.475-0.877-4.05
		c0-2.025,0.427-3.747,1.282-5.164c0.854-1.417,1.958-2.576,3.308-3.477c1.351-0.899,2.846-1.563,4.489-1.991
		c1.642-0.427,3.273-0.641,4.894-0.641c2.52,0,4.983,0.395,7.392,1.181c2.407,0.788,4.443,1.969,6.108,3.544L394.276,95.017z"/>
	<path d="M428.5,118.71v-4.657h-0.135c-0.405,0.766-0.935,1.484-1.587,2.159c-0.652,0.676-1.417,1.261-2.295,1.756
		s-1.846,0.899-2.902,1.215c-1.058,0.314-2.172,0.473-3.342,0.473c-2.251,0-4.151-0.405-5.704-1.215
		c-1.552-0.811-2.813-1.856-3.779-3.14c-0.969-1.282-1.666-2.744-2.093-4.388c-0.429-1.642-0.642-3.317-0.642-5.028V85.095h11.138
		v18.225c0,0.945,0.067,1.846,0.203,2.7c0.135,0.855,0.394,1.62,0.776,2.295c0.382,0.675,0.888,1.205,1.519,1.587
		c0.63,0.383,1.462,0.573,2.497,0.573c1.935,0,3.409-0.719,4.422-2.16c1.013-1.439,1.519-3.127,1.519-5.063V85.095h11.07v33.616
		H428.5z"/>
	<path d="M481.151,102.307c0,0.451,0,0.901,0,1.351c0,0.45-0.023,0.877-0.067,1.282h-24.368c0.09,0.945,0.371,1.801,0.844,2.565
		c0.473,0.766,1.08,1.429,1.822,1.991c0.743,0.563,1.575,1.002,2.498,1.316c0.922,0.315,1.878,0.473,2.868,0.473
		c1.756,0,3.24-0.326,4.455-0.979c1.216-0.651,2.205-1.495,2.971-2.531l7.695,4.86c-1.576,2.295-3.657,4.062-6.244,5.299
		c-2.588,1.237-5.592,1.856-9.012,1.856c-2.521,0-4.905-0.395-7.155-1.182c-2.251-0.786-4.219-1.934-5.906-3.442
		c-1.688-1.507-3.016-3.363-3.982-5.568c-0.969-2.205-1.451-4.726-1.451-7.561c0-2.744,0.473-5.231,1.417-7.459
		c0.945-2.228,2.228-4.118,3.848-5.67c1.62-1.552,3.532-2.756,5.738-3.611c2.204-0.854,4.59-1.282,7.155-1.282
		c2.474,0,4.747,0.417,6.817,1.249c2.069,0.833,3.848,2.037,5.332,3.611c1.485,1.576,2.644,3.488,3.477,5.737
		C480.734,96.863,481.151,99.428,481.151,102.307z M470.958,98.055c0-1.755-0.552-3.263-1.654-4.523
		c-1.104-1.259-2.757-1.89-4.961-1.89c-1.08,0-2.07,0.169-2.971,0.506s-1.688,0.799-2.362,1.383c-0.675,0.586-1.215,1.272-1.62,2.06
		c-0.405,0.788-0.631,1.609-0.675,2.464H470.958z"/>
	<path d="M507.813,95.017c-0.9-0.854-1.957-1.575-3.172-2.159c-1.215-0.585-2.498-0.878-3.848-0.878
		c-1.036,0-1.991,0.203-2.869,0.608c-0.877,0.405-1.316,1.103-1.316,2.093c0,0.944,0.483,1.62,1.451,2.024
		c0.968,0.405,2.531,0.855,4.691,1.351c1.26,0.27,2.531,0.652,3.814,1.147c1.282,0.495,2.44,1.147,3.477,1.957
		c1.034,0.811,1.866,1.801,2.497,2.971c0.63,1.171,0.945,2.564,0.945,4.185c0,2.116-0.429,3.905-1.283,5.366
		c-0.854,1.463-1.969,2.645-3.341,3.544c-1.373,0.901-2.914,1.553-4.624,1.958c-1.711,0.405-3.42,0.607-5.13,0.607
		c-2.746,0-5.435-0.438-8.066-1.316c-2.633-0.878-4.826-2.171-6.582-3.881l6.211-6.548c0.989,1.08,2.204,1.98,3.645,2.7
		c1.439,0.72,2.97,1.08,4.59,1.08c0.9,0,1.789-0.214,2.667-0.642c0.877-0.427,1.316-1.182,1.316-2.262
		c0-1.034-0.54-1.799-1.62-2.295c-1.08-0.494-2.768-1.013-5.063-1.553c-1.171-0.27-2.341-0.629-3.511-1.08
		c-1.171-0.449-2.217-1.057-3.139-1.822c-0.923-0.765-1.677-1.71-2.262-2.835c-0.585-1.124-0.877-2.475-0.877-4.05
		c0-2.025,0.427-3.747,1.282-5.164c0.854-1.417,1.958-2.576,3.308-3.477c1.351-0.899,2.846-1.563,4.489-1.991
		c1.642-0.427,3.273-0.641,4.894-0.641c2.52,0,4.983,0.395,7.392,1.181c2.407,0.788,4.443,1.969,6.108,3.544L507.813,95.017z"/>
</g>
<g>
	<path fill="#777677" d="M181.078,142.847c0,1.209-0.224,2.227-0.672,3.055s-1.052,1.496-1.812,2.002
		c-0.76,0.507-1.637,0.877-2.631,1.11c-0.994,0.234-2.027,0.352-3.098,0.352h-2.484v7.804h-4.998v-20.694h7.599
		c1.13,0,2.188,0.113,3.171,0.337s1.842,0.584,2.572,1.081c0.731,0.497,1.305,1.15,1.725,1.958
		C180.868,140.661,181.078,141.659,181.078,142.847z M176.08,142.876c0-0.486-0.098-0.887-0.292-1.198s-0.458-0.556-0.789-0.73
		c-0.332-0.176-0.707-0.293-1.125-0.351c-0.419-0.059-0.853-0.088-1.301-0.088h-2.192v4.881h2.104c0.468,0,0.916-0.039,1.344-0.117
		c0.429-0.077,0.813-0.214,1.155-0.409c0.341-0.194,0.609-0.453,0.804-0.774S176.08,143.364,176.08,142.876z"/>
	<path fill="#777677" d="M197.797,149.833c0,1.188-0.214,2.265-0.643,3.229s-1.013,1.783-1.753,2.455
		c-0.741,0.672-1.598,1.193-2.572,1.563c-0.975,0.37-2.017,0.556-3.127,0.556c-1.091,0-2.129-0.186-3.113-0.556
		c-0.984-0.37-1.841-0.892-2.572-1.563c-0.73-0.672-1.311-1.49-1.739-2.455s-0.643-2.041-0.643-3.229s0.214-2.261,0.643-3.216
		c0.429-0.954,1.009-1.763,1.739-2.426c0.731-0.662,1.588-1.169,2.572-1.52c0.984-0.352,2.021-0.526,3.113-0.526
		c1.111,0,2.153,0.175,3.127,0.526c0.974,0.351,1.832,0.857,2.572,1.52c0.74,0.663,1.325,1.472,1.753,2.426
		C197.583,147.573,197.797,148.645,197.797,149.833z M193.179,149.833c0-0.468-0.078-0.926-0.234-1.374s-0.38-0.843-0.672-1.184
		c-0.292-0.341-0.653-0.619-1.082-0.833c-0.429-0.215-0.926-0.322-1.491-0.322c-0.565,0-1.063,0.107-1.491,0.322
		c-0.429,0.214-0.785,0.492-1.067,0.833c-0.283,0.341-0.497,0.735-0.643,1.184c-0.146,0.448-0.219,0.906-0.219,1.374
		c0,0.467,0.073,0.925,0.219,1.373c0.146,0.448,0.366,0.853,0.658,1.213c0.292,0.361,0.653,0.648,1.082,0.862
		c0.428,0.215,0.925,0.322,1.491,0.322c0.565,0,1.062-0.107,1.491-0.322c0.428-0.214,0.789-0.501,1.082-0.862
		c0.292-0.36,0.511-0.765,0.657-1.213C193.106,150.758,193.179,150.3,193.179,149.833z"/>
	<path fill="#777677" d="M219.367,157.169h-4.822l-2.865-9.061h-0.058l-2.806,9.061h-4.823l-5.027-14.556h5.173l2.514,9.207h0.088
		l2.601-9.207h4.823l2.689,9.207h0.059l2.543-9.207h4.969L219.367,157.169z"/>
	<path fill="#777677" d="M240.733,150.067c0,0.195,0,0.39,0,0.585c0,0.194-0.01,0.38-0.029,0.555h-10.551
		c0.039,0.409,0.161,0.78,0.365,1.111s0.468,0.618,0.789,0.862c0.322,0.243,0.682,0.434,1.082,0.569
		c0.399,0.137,0.813,0.205,1.242,0.205c0.76,0,1.403-0.142,1.929-0.424c0.526-0.282,0.955-0.647,1.286-1.097l3.332,2.104
		c-0.683,0.994-1.583,1.759-2.704,2.295c-1.121,0.535-2.421,0.804-3.902,0.804c-1.091,0-2.124-0.171-3.098-0.512
		c-0.975-0.341-1.827-0.838-2.558-1.49c-0.73-0.653-1.306-1.457-1.724-2.412c-0.419-0.954-0.628-2.046-0.628-3.273
		c0-1.188,0.205-2.265,0.614-3.229s0.964-1.783,1.666-2.455c0.701-0.673,1.529-1.193,2.484-1.563
		c0.955-0.37,1.987-0.556,3.098-0.556c1.071,0,2.056,0.181,2.952,0.541c0.896,0.36,1.666,0.882,2.309,1.563
		c0.643,0.683,1.145,1.51,1.505,2.484C240.553,147.709,240.733,148.82,240.733,150.067z M236.32,148.225
		c0-0.76-0.239-1.412-0.716-1.958c-0.478-0.545-1.194-0.818-2.148-0.818c-0.468,0-0.896,0.073-1.286,0.219
		c-0.39,0.146-0.731,0.347-1.023,0.6c-0.292,0.254-0.526,0.551-0.702,0.892s-0.273,0.697-0.292,1.066H236.32z"/>
	<path fill="#777677" d="M253.155,146.559c-0.215-0.058-0.424-0.097-0.628-0.116s-0.405-0.029-0.599-0.029
		c-0.643,0-1.184,0.116-1.622,0.35c-0.438,0.233-0.79,0.515-1.052,0.846c-0.263,0.33-0.453,0.689-0.57,1.078
		c-0.117,0.389-0.175,0.729-0.175,1.02v7.463h-4.793v-14.538h4.618v2.104h0.059c0.37-0.746,0.896-1.354,1.578-1.825
		s1.471-0.706,2.368-0.706c0.194,0,0.384,0.01,0.57,0.029c0.185,0.02,0.336,0.049,0.453,0.087L253.155,146.559z"/>
	<path fill="#777677" d="M269.202,150.067c0,0.195,0,0.39,0,0.585c0,0.194-0.01,0.38-0.029,0.555h-10.551
		c0.039,0.409,0.161,0.78,0.365,1.111s0.468,0.618,0.789,0.862c0.322,0.243,0.682,0.434,1.082,0.569
		c0.399,0.137,0.813,0.205,1.242,0.205c0.76,0,1.403-0.142,1.929-0.424c0.526-0.282,0.955-0.647,1.286-1.097l3.332,2.104
		c-0.683,0.994-1.583,1.759-2.704,2.295c-1.121,0.535-2.421,0.804-3.902,0.804c-1.091,0-2.124-0.171-3.098-0.512
		c-0.975-0.341-1.827-0.838-2.558-1.49c-0.73-0.653-1.306-1.457-1.724-2.412c-0.419-0.954-0.628-2.046-0.628-3.273
		c0-1.188,0.205-2.265,0.614-3.229s0.964-1.783,1.666-2.455c0.701-0.673,1.529-1.193,2.484-1.563
		c0.955-0.37,1.987-0.556,3.098-0.556c1.071,0,2.056,0.181,2.952,0.541c0.896,0.36,1.666,0.882,2.309,1.563
		c0.643,0.683,1.145,1.51,1.505,2.484C269.022,147.709,269.202,148.82,269.202,150.067z M264.789,148.225
		c0-0.76-0.239-1.412-0.716-1.958c-0.478-0.545-1.194-0.818-2.148-0.818c-0.468,0-0.896,0.073-1.286,0.219
		c-0.39,0.146-0.731,0.347-1.023,0.6c-0.292,0.254-0.526,0.551-0.702,0.892s-0.273,0.697-0.292,1.066H264.789z"/>
	<path fill="#777677" d="M283.202,157.169v-1.899h-0.058c-0.468,0.74-1.136,1.311-2.002,1.709c-0.867,0.399-1.788,0.6-2.762,0.6
		c-1.091,0-2.065-0.215-2.923-0.643c-0.857-0.429-1.583-0.999-2.177-1.71c-0.595-0.711-1.048-1.535-1.359-2.47
		c-0.312-0.936-0.467-1.91-0.467-2.923c0-1.014,0.161-1.983,0.482-2.909c0.322-0.925,0.779-1.738,1.374-2.44
		c0.594-0.701,1.315-1.257,2.163-1.666s1.798-0.613,2.85-0.613c1.071,0,1.978,0.204,2.718,0.613c0.74,0.409,1.315,0.858,1.724,1.345
		h0.059v-9.09h4.793v22.097H283.202z M283.027,149.862c0-0.467-0.083-0.925-0.249-1.373s-0.399-0.848-0.701-1.198
		c-0.302-0.352-0.668-0.634-1.096-0.848c-0.429-0.215-0.916-0.322-1.461-0.322c-0.565,0-1.063,0.107-1.491,0.322
		c-0.429,0.214-0.789,0.492-1.082,0.833c-0.292,0.341-0.511,0.735-0.658,1.184c-0.146,0.448-0.219,0.906-0.219,1.374
		c0,0.467,0.073,0.931,0.219,1.388c0.146,0.458,0.366,0.862,0.658,1.213c0.292,0.351,0.653,0.634,1.082,0.848
		c0.428,0.215,0.925,0.322,1.491,0.322c0.545,0,1.033-0.107,1.461-0.322c0.428-0.214,0.794-0.497,1.096-0.848
		c0.302-0.351,0.536-0.75,0.701-1.198S283.027,150.33,283.027,149.862z"/>
	<path fill="#777677" d="M314.945,149.833c0,1.013-0.156,1.987-0.468,2.923c-0.313,0.935-0.765,1.759-1.359,2.47
		s-1.32,1.281-2.178,1.71c-0.857,0.428-1.831,0.643-2.923,0.643c-0.975,0-1.895-0.2-2.762-0.6c-0.867-0.398-1.534-0.969-2.002-1.709
		h-0.059v1.899h-4.414v-22.097h4.794v9.09h0.059c0.409-0.486,0.983-0.936,1.725-1.345c0.74-0.409,1.646-0.613,2.718-0.613
		c1.053,0,2.002,0.204,2.85,0.613s1.568,0.965,2.163,1.666c0.595,0.702,1.053,1.516,1.374,2.44
		C314.784,147.85,314.945,148.82,314.945,149.833z M310.327,149.833c0-0.468-0.073-0.926-0.22-1.374
		c-0.146-0.448-0.365-0.843-0.657-1.184s-0.653-0.619-1.082-0.833c-0.429-0.215-0.925-0.322-1.49-0.322
		c-0.546,0-1.033,0.107-1.461,0.322c-0.43,0.214-0.795,0.496-1.097,0.848c-0.302,0.351-0.536,0.75-0.701,1.198
		c-0.166,0.448-0.249,0.906-0.249,1.373c0,0.468,0.083,0.926,0.249,1.374c0.165,0.448,0.399,0.848,0.701,1.198
		s0.667,0.634,1.097,0.848c0.428,0.215,0.915,0.322,1.461,0.322c0.565,0,1.062-0.107,1.49-0.322c0.429-0.214,0.79-0.497,1.082-0.848
		s0.512-0.755,0.657-1.213C310.253,150.764,310.327,150.3,310.327,149.833z"/>
	<path fill="#777677" d="M326.198,159.362c-0.292,0.76-0.619,1.437-0.979,2.031c-0.36,0.594-0.789,1.101-1.286,1.52
		s-1.081,0.735-1.753,0.95c-0.673,0.214-1.467,0.321-2.383,0.321c-0.448,0-0.911-0.029-1.388-0.088
		c-0.479-0.058-0.892-0.136-1.243-0.233l0.526-4.033c0.234,0.077,0.492,0.141,0.774,0.189s0.541,0.073,0.775,0.073
		c0.74,0,1.275-0.171,1.607-0.512c0.331-0.341,0.613-0.823,0.848-1.446l0.468-1.198l-6.08-14.322h5.319l3.245,9.353h0.087
		l2.894-9.353h5.086L326.198,159.362z"/>
	<path fill="#168D90" d="M360.891,157.169l0.117-14.644h-0.088l-5.378,14.644h-3.508l-5.231-14.644h-0.088l0.117,14.644h-4.706
		v-20.694h7.111l4.712,13.271h0.116l4.507-13.271h7.229v20.694H360.891z"/>
	<path fill="#168D90" d="M369.572,144.601c0.857-0.818,1.856-1.433,2.996-1.842s2.304-0.613,3.493-0.613
		c1.228,0,2.265,0.151,3.112,0.453s1.534,0.77,2.061,1.402c0.526,0.634,0.911,1.433,1.154,2.397
		c0.244,0.964,0.366,2.109,0.366,3.435v7.336h-4.385v-1.549h-0.088c-0.37,0.604-0.931,1.071-1.681,1.402s-1.563,0.497-2.44,0.497
		c-0.585,0-1.188-0.078-1.813-0.233c-0.623-0.156-1.193-0.409-1.71-0.76c-0.516-0.352-0.939-0.819-1.271-1.403
		c-0.332-0.585-0.497-1.306-0.497-2.163c0-1.052,0.287-1.899,0.862-2.543c0.574-0.643,1.314-1.14,2.221-1.49
		s1.915-0.585,3.025-0.702c1.11-0.116,2.192-0.175,3.244-0.175v-0.234c0-0.721-0.253-1.251-0.76-1.593
		c-0.507-0.341-1.13-0.512-1.87-0.512c-0.683,0-1.34,0.146-1.974,0.438c-0.633,0.293-1.174,0.644-1.622,1.053L369.572,144.601z
		 M378.37,150.827h-0.614c-0.525,0-1.057,0.024-1.593,0.073s-1.013,0.142-1.432,0.277c-0.42,0.137-0.766,0.337-1.038,0.6
		s-0.409,0.609-0.409,1.037c0,0.273,0.063,0.508,0.19,0.702c0.126,0.194,0.287,0.351,0.482,0.468
		c0.194,0.116,0.418,0.199,0.672,0.248c0.253,0.049,0.497,0.073,0.73,0.073c0.975,0,1.72-0.268,2.236-0.804
		c0.516-0.536,0.774-1.262,0.774-2.178V150.827z"/>
	<path fill="#168D90" d="M395.76,146.559c-0.215-0.058-0.424-0.097-0.629-0.116c-0.204-0.02-0.404-0.029-0.599-0.029
		c-0.644,0-1.184,0.116-1.622,0.35s-0.789,0.515-1.053,0.846c-0.263,0.33-0.453,0.689-0.569,1.078
		c-0.117,0.389-0.176,0.729-0.176,1.02v7.463h-4.793v-14.538h4.617v2.104h0.059c0.37-0.746,0.896-1.354,1.579-1.825
		c0.682-0.471,1.471-0.706,2.367-0.706c0.194,0,0.385,0.01,0.57,0.029c0.185,0.02,0.336,0.049,0.452,0.087L395.76,146.559z"/>
	<path fill="#168D90" d="M406.107,159.362c-0.292,0.76-0.619,1.437-0.979,2.031c-0.36,0.594-0.789,1.101-1.286,1.52
		s-1.081,0.735-1.753,0.95c-0.673,0.214-1.467,0.321-2.383,0.321c-0.448,0-0.911-0.029-1.388-0.088
		c-0.479-0.058-0.892-0.136-1.243-0.233l0.526-4.033c0.234,0.077,0.492,0.141,0.774,0.189s0.541,0.073,0.775,0.073
		c0.74,0,1.275-0.171,1.607-0.512c0.331-0.341,0.613-0.823,0.848-1.446l0.468-1.198l-6.08-14.322h5.319l3.245,9.353h0.087
		l2.894-9.353h5.086L406.107,159.362z"/>
	<path fill="#168D90" d="M432.968,141.854c-0.429-0.546-0.989-0.979-1.681-1.301c-0.692-0.322-1.359-0.482-2.002-0.482
		c-0.332,0-0.668,0.029-1.009,0.088s-0.648,0.171-0.921,0.336c-0.272,0.166-0.502,0.38-0.687,0.643
		c-0.186,0.264-0.278,0.6-0.278,1.009c0,0.351,0.073,0.643,0.22,0.877c0.146,0.233,0.36,0.438,0.643,0.613
		c0.282,0.176,0.619,0.337,1.009,0.482c0.39,0.146,0.828,0.298,1.315,0.453c0.701,0.234,1.432,0.492,2.192,0.774
		c0.76,0.283,1.451,0.658,2.075,1.126c0.623,0.467,1.14,1.047,1.549,1.738c0.409,0.692,0.614,1.555,0.614,2.587
		c0,1.189-0.22,2.217-0.658,3.084s-1.028,1.583-1.769,2.148s-1.588,0.984-2.543,1.257c-0.954,0.272-1.938,0.409-2.952,0.409
		c-1.48,0-2.913-0.259-4.296-0.774c-1.384-0.517-2.533-1.252-3.449-2.207l3.273-3.332c0.507,0.624,1.174,1.145,2.002,1.563
		s1.651,0.629,2.47,0.629c0.37,0,0.731-0.039,1.082-0.117s0.657-0.205,0.921-0.38c0.263-0.176,0.472-0.409,0.628-0.702
		c0.156-0.292,0.234-0.643,0.234-1.052c0-0.39-0.098-0.721-0.293-0.994c-0.194-0.272-0.473-0.521-0.833-0.745
		c-0.36-0.224-0.809-0.429-1.345-0.613c-0.536-0.186-1.145-0.385-1.826-0.6c-0.663-0.214-1.311-0.468-1.943-0.76
		c-0.634-0.292-1.199-0.667-1.695-1.125c-0.497-0.458-0.896-1.014-1.199-1.666c-0.302-0.653-0.452-1.447-0.452-2.383
		c0-1.149,0.233-2.134,0.701-2.952s1.081-1.49,1.841-2.017c0.761-0.526,1.617-0.91,2.572-1.154c0.955-0.243,1.919-0.365,2.894-0.365
		c1.17,0,2.363,0.215,3.581,0.643c1.218,0.429,2.284,1.063,3.2,1.9L432.968,141.854z"/>
	<path fill="#168D90" d="M454.48,149.833c0,1.188-0.215,2.265-0.644,3.229s-1.014,1.783-1.754,2.455s-1.598,1.193-2.571,1.563
		c-0.975,0.37-2.018,0.556-3.128,0.556c-1.092,0-2.129-0.186-3.113-0.556c-0.983-0.37-1.841-0.892-2.571-1.563
		c-0.731-0.672-1.312-1.49-1.739-2.455c-0.429-0.965-0.644-2.041-0.644-3.229s0.215-2.261,0.644-3.216
		c0.428-0.954,1.008-1.763,1.739-2.426c0.73-0.662,1.588-1.169,2.571-1.52c0.984-0.352,2.021-0.526,3.113-0.526
		c1.11,0,2.153,0.175,3.128,0.526c0.974,0.351,1.831,0.857,2.571,1.52c0.74,0.663,1.325,1.472,1.754,2.426
		C454.265,147.573,454.48,148.645,454.48,149.833z M449.862,149.833c0-0.468-0.078-0.926-0.234-1.374s-0.38-0.843-0.672-1.184
		s-0.653-0.619-1.082-0.833c-0.429-0.215-0.926-0.322-1.49-0.322c-0.565,0-1.063,0.107-1.49,0.322
		c-0.43,0.214-0.785,0.492-1.067,0.833s-0.497,0.735-0.643,1.184c-0.146,0.448-0.22,0.906-0.22,1.374
		c0,0.467,0.073,0.925,0.22,1.373c0.146,0.448,0.365,0.853,0.657,1.213c0.292,0.361,0.652,0.648,1.081,0.862
		c0.429,0.215,0.926,0.322,1.491,0.322c0.564,0,1.062-0.107,1.49-0.322c0.429-0.214,0.789-0.501,1.082-0.862
		c0.292-0.36,0.512-0.765,0.657-1.213C449.789,150.758,449.862,150.3,449.862,149.833z"/>
	<path fill="#168D90" d="M466.551,138.609c-0.176-0.058-0.38-0.106-0.614-0.146c-0.233-0.039-0.467-0.059-0.701-0.059
		c-0.448,0-0.809,0.078-1.081,0.233c-0.273,0.156-0.487,0.365-0.644,0.629c-0.156,0.263-0.263,0.561-0.321,0.892
		s-0.088,0.662-0.088,0.993v1.462h3.244v3.565h-3.244v10.99h-4.793v-10.99h-2.66v-3.565h2.66v-1.403
		c0-0.896,0.097-1.749,0.292-2.558c0.194-0.808,0.53-1.52,1.009-2.134c0.477-0.613,1.12-1.101,1.929-1.461s1.816-0.541,3.025-0.541
		c0.409,0,0.813,0.024,1.213,0.073s0.765,0.122,1.096,0.219L466.551,138.609z"/>
	<path fill="#168D90" d="M472.66,146.179v5.575c0,0.685,0.132,1.198,0.395,1.54c0.264,0.343,0.735,0.514,1.418,0.514
		c0.233,0,0.482-0.02,0.745-0.059s0.482-0.097,0.657-0.175l0.059,3.507c-0.331,0.117-0.75,0.22-1.257,0.307
		c-0.507,0.088-1.013,0.132-1.52,0.132c-0.975,0-1.793-0.122-2.455-0.366c-0.663-0.244-1.194-0.596-1.593-1.055
		c-0.4-0.459-0.688-1.006-0.862-1.641c-0.176-0.636-0.264-1.344-0.264-2.125v-6.154h-2.338v-3.565h2.309v-3.829h4.706v3.829h3.42
		v3.565H472.66z"/>
	<path fill="#168D90" d="M496.861,157.169h-4.822l-2.864-9.061h-0.059l-2.807,9.061h-4.822l-5.027-14.556h5.174l2.514,9.207h0.087
		l2.602-9.207h4.823l2.688,9.207h0.059l2.543-9.207h4.969L496.861,157.169z"/>
	<path fill="#168D90" d="M503.583,144.601c0.857-0.818,1.856-1.433,2.996-1.842s2.304-0.613,3.493-0.613
		c1.228,0,2.265,0.151,3.112,0.453s1.534,0.77,2.061,1.402c0.526,0.634,0.911,1.433,1.154,2.397
		c0.244,0.964,0.366,2.109,0.366,3.435v7.336h-4.385v-1.549h-0.088c-0.37,0.604-0.931,1.071-1.681,1.402s-1.563,0.497-2.44,0.497
		c-0.585,0-1.188-0.078-1.813-0.233c-0.623-0.156-1.193-0.409-1.71-0.76c-0.516-0.352-0.939-0.819-1.271-1.403
		c-0.332-0.585-0.497-1.306-0.497-2.163c0-1.052,0.287-1.899,0.862-2.543c0.574-0.643,1.314-1.14,2.221-1.49
		s1.915-0.585,3.025-0.702c1.11-0.116,2.192-0.175,3.244-0.175v-0.234c0-0.721-0.253-1.251-0.76-1.593
		c-0.507-0.341-1.13-0.512-1.87-0.512c-0.683,0-1.34,0.146-1.974,0.438c-0.633,0.293-1.174,0.644-1.622,1.053L503.583,144.601z
		 M512.381,150.827h-0.614c-0.525,0-1.057,0.024-1.593,0.073s-1.013,0.142-1.432,0.277c-0.42,0.137-0.766,0.337-1.038,0.6
		s-0.409,0.609-0.409,1.037c0,0.273,0.063,0.508,0.19,0.702c0.126,0.194,0.287,0.351,0.482,0.468
		c0.194,0.116,0.418,0.199,0.672,0.248c0.253,0.049,0.497,0.073,0.73,0.073c0.975,0,1.72-0.268,2.236-0.804
		c0.516-0.536,0.774-1.262,0.774-2.178V150.827z"/>
	<path fill="#168D90" d="M529.772,146.559c-0.215-0.058-0.424-0.097-0.629-0.116c-0.204-0.02-0.404-0.029-0.599-0.029
		c-0.644,0-1.184,0.116-1.622,0.35s-0.789,0.515-1.053,0.846c-0.263,0.33-0.453,0.689-0.569,1.078
		c-0.117,0.389-0.176,0.729-0.176,1.02v7.463h-4.793v-14.538h4.617v2.104h0.059c0.37-0.746,0.896-1.354,1.579-1.825
		c0.682-0.471,1.471-0.706,2.367-0.706c0.194,0,0.385,0.01,0.57,0.029c0.185,0.02,0.336,0.049,0.452,0.087L529.772,146.559z"/>
	<path fill="#168D90" d="M545.819,150.067c0,0.195,0,0.39,0,0.585c0,0.194-0.01,0.38-0.029,0.555h-10.552
		c0.039,0.409,0.161,0.78,0.365,1.111c0.205,0.331,0.468,0.618,0.79,0.862c0.321,0.243,0.682,0.434,1.081,0.569
		c0.399,0.137,0.813,0.205,1.242,0.205c0.76,0,1.403-0.142,1.929-0.424c0.526-0.282,0.955-0.647,1.286-1.097l3.332,2.104
		c-0.682,0.994-1.583,1.759-2.703,2.295c-1.121,0.535-2.422,0.804-3.902,0.804c-1.092,0-2.124-0.171-3.098-0.512
		c-0.975-0.341-1.827-0.838-2.558-1.49c-0.731-0.653-1.306-1.457-1.725-2.412c-0.42-0.954-0.629-2.046-0.629-3.273
		c0-1.188,0.205-2.265,0.614-3.229s0.965-1.783,1.666-2.455c0.701-0.673,1.529-1.193,2.484-1.563
		c0.954-0.37,1.987-0.556,3.098-0.556c1.072,0,2.056,0.181,2.952,0.541s1.666,0.882,2.31,1.563c0.643,0.683,1.145,1.51,1.505,2.484
		S545.819,148.82,545.819,150.067z M541.406,148.225c0-0.76-0.239-1.412-0.717-1.958c-0.478-0.545-1.193-0.818-2.148-0.818
		c-0.467,0-0.896,0.073-1.286,0.219c-0.39,0.146-0.73,0.347-1.022,0.6c-0.292,0.254-0.526,0.551-0.701,0.892
		c-0.176,0.341-0.273,0.697-0.293,1.066H541.406z"/>
	<path fill="#168D90" d="M557.364,146.911c-0.39-0.37-0.848-0.683-1.374-0.936c-0.525-0.253-1.081-0.38-1.666-0.38
		c-0.448,0-0.862,0.087-1.242,0.263s-0.569,0.478-0.569,0.906c0,0.409,0.209,0.701,0.628,0.877c0.419,0.175,1.097,0.37,2.031,0.584
		c0.546,0.117,1.097,0.283,1.651,0.497c0.556,0.215,1.058,0.497,1.506,0.848s0.809,0.779,1.081,1.286s0.409,1.11,0.409,1.813
		c0,0.916-0.186,1.69-0.555,2.323c-0.371,0.634-0.854,1.146-1.447,1.535c-0.595,0.39-1.262,0.672-2.002,0.848
		c-0.741,0.175-1.481,0.263-2.222,0.263c-1.188,0-2.353-0.19-3.493-0.57c-1.14-0.38-2.09-0.939-2.85-1.681l2.689-2.835
		c0.428,0.468,0.954,0.857,1.578,1.169c0.623,0.313,1.286,0.468,1.987,0.468c0.39,0,0.774-0.092,1.155-0.277
		c0.38-0.186,0.569-0.512,0.569-0.979c0-0.448-0.233-0.779-0.701-0.993c-0.468-0.215-1.198-0.438-2.192-0.673
		c-0.507-0.117-1.014-0.272-1.52-0.468c-0.507-0.194-0.96-0.457-1.359-0.789c-0.399-0.331-0.727-0.74-0.979-1.228
		c-0.253-0.486-0.38-1.071-0.38-1.754c0-0.877,0.186-1.622,0.556-2.235c0.37-0.614,0.848-1.115,1.432-1.506
		c0.585-0.39,1.232-0.677,1.944-0.862c0.711-0.185,1.417-0.277,2.119-0.277c1.091,0,2.157,0.171,3.2,0.512
		c1.042,0.341,1.924,0.853,2.646,1.534L557.364,146.911z"/>
</g>
<g>
	<g>
		<path id="id_101_1_" fill="#1C8E90" d="M39.463,64.723c4.257,5.688,9.672,8.895,13.966,10.688c1.36,0.567,2.614,0.996,3.7,1.32
			l-4.359,29.597l-17.171,37.139c-1.404,3.038-0.08,6.641,2.959,8.046c3.039,1.404,6.642,0.081,8.047-2.959l16.81-36.362l3.33,0.491
			v37.725c0,3.349,2.713,6.062,6.062,6.062s6.063-2.713,6.063-6.062v-39.398c0.028-0.119,0.054-0.238,0.071-0.359l4.654-31.595
			c0.103-0.139,0.259-0.343,0.468-0.599c0.299-0.368,0.708-0.84,1.214-1.372c-0.428-0.392-0.958-0.849-1.607-1.367
			c-0.195-0.154-0.397-0.313-0.615-0.479c-0.37-0.285-0.745-0.55-1.122-0.805c-0.533-0.36-1.071-0.695-1.617-0.997
			c-0.928,0.65-1.947,1.169-3.039,1.54c-0.37,0.125-0.749,0.233-1.135,0.322c-0.896,0.211-1.812,0.315-2.724,0.315
			c-3.263,0-6.247-1.304-8.423-3.468c-0.002,0-0.004,0.001-0.006,0.002c-1.282,0.42-2.586,0.962-3.921,1.634
			c-0.662,0.333-1.373,0.503-2.109,0.503c-0.499,0-0.979-0.085-1.437-0.231c-1.182-0.377-2.182-1.205-2.76-2.354
			c-0.564-1.121-0.659-2.392-0.267-3.584c0.046-0.135,0.098-0.268,0.154-0.4c-0.793-0.39-1.608-0.834-2.428-1.348
			c-2.435-1.519-4.891-3.587-6.942-6.413c-2.048-2.833-3.722-6.428-4.543-11.192c-0.351-2.045-2.292-3.42-4.337-3.069
			c-2.044,0.351-3.418,2.292-3.067,4.338C34.362,56.069,36.629,60.941,39.463,64.723z"/>
		<path id="id_102_1_" fill="#A3216D" d="M117.025,71.699c-0.579,1.149-1.58,1.977-2.761,2.354
			c-0.457,0.146-0.938,0.231-1.436,0.231c-0.737,0-1.447-0.169-2.108-0.503c-1.337-0.672-2.64-1.214-3.922-1.634
			c-0.002-0.001-0.004-0.002-0.006-0.002c-2.175,2.164-5.159,3.468-8.422,3.468c-0.912,0-1.829-0.104-2.724-0.315
			c-0.386-0.088-0.765-0.197-1.135-0.322c-1.092-0.371-2.112-0.89-3.039-1.54c-0.118-0.084-0.233-0.17-0.35-0.258
			c-0.155-0.117-0.307-0.24-0.456-0.365c-0.117-0.098-0.232-0.199-0.344-0.302c-0.812-0.738-1.528-1.59-2.125-2.547
			c-0.444-0.714-0.806-1.463-1.087-2.235c-0.388-0.272-0.795-0.542-1.215-0.806c-0.269-0.168-0.541-0.338-0.821-0.502
			c-0.106,0.442-0.236,0.879-0.393,1.309c-0.282,0.771-0.644,1.52-1.088,2.234c-0.596,0.958-1.313,1.809-2.125,2.547
			c-0.113,0.103-0.228,0.204-0.345,0.302c0.153,0.088,0.3,0.178,0.448,0.268c0.735,0.45,1.423,0.926,2.056,1.411
			c0.869,0.665,1.626,1.339,2.268,1.968c0.221,0.214,0.425,0.424,0.617,0.624c0.506,0.532,0.914,1.004,1.214,1.373
			c0.208,0.257,0.365,0.459,0.468,0.598l4.654,31.595c0.019,0.121,0.043,0.244,0.072,0.359v39.398c0,3.349,2.715,6.062,6.062,6.062
			c3.349,0,6.063-2.713,6.063-6.062v-37.725l3.33-0.491l16.812,36.362c1.405,3.04,5.008,4.363,8.046,2.959
			c3.038-1.405,4.363-5.008,2.958-8.046l-17.171-37.143l-4.358-29.593c2.234-0.665,5.173-1.778,8.282-3.625
			c3.187-1.898,6.551-4.594,9.384-8.383c2.833-3.782,5.1-8.653,6.13-14.693c0.351-2.045-1.023-3.987-3.069-4.336
			c-2.044-0.35-3.986,1.023-4.337,3.069c-0.848,4.917-2.602,8.591-4.743,11.464c-2.702,3.619-6.103,5.975-9.17,7.489
			c0.056,0.129,0.108,0.265,0.155,0.4C117.684,69.308,117.59,70.579,117.025,71.699z"/>
		<path id="id_103" fill="#A3216D" d="M108.042,70.685c-0.047,0.065-0.091,0.134-0.139,0.198c-0.132,0.174-0.274,0.34-0.415,0.507
			c1.165,0.402,2.382,0.912,3.654,1.552c0.955,0.48,2.016,0.513,2.95,0.182c0.878-0.313,1.643-0.949,2.095-1.846
			c0.518-1.027,0.518-2.18,0.101-3.161c-0.335-0.789-0.939-1.469-1.765-1.884c-1.431-0.722-2.838-1.322-4.22-1.816
			c-0.043,0.643-0.135,1.292-0.286,1.938C109.642,67.96,108.956,69.419,108.042,70.685z"/>
		<path id="id_104" fill="#1C8E90" d="M55.602,71.278c0.452,0.897,1.217,1.532,2.095,1.846c0.933,0.332,1.995,0.299,2.949-0.182
			c1.273-0.64,2.489-1.15,3.655-1.552c-0.14-0.167-0.283-0.331-0.415-0.505c-0.049-0.065-0.091-0.135-0.14-0.2
			c-0.915-1.265-1.6-2.724-1.975-4.329c-0.15-0.647-0.243-1.296-0.286-1.938c-1.382,0.494-2.79,1.094-4.221,1.816
			c-0.825,0.416-1.43,1.096-1.764,1.885C55.084,69.1,55.084,70.25,55.602,71.278z"/>
		<path id="id_105" fill="#A3216D" d="M87.9,67.145c0.203,0.605,0.459,1.19,0.764,1.751c0.474,0.874,1.065,1.682,1.758,2.4
			c0.353,0.368,0.732,0.712,1.137,1.03c0.278,0.217,0.567,0.422,0.867,0.614c0.019,0.012,0.039,0.024,0.058,0.035
			c0.281,0.176,0.57,0.342,0.869,0.495c0.779,0.394,1.617,0.706,2.505,0.914c3.649,0.85,7.295-0.222,9.884-2.55
			c0.267-0.24,0.521-0.494,0.765-0.759c0.057-0.064,0.114-0.126,0.17-0.19c1.147-1.316,2-2.923,2.423-4.742
			c0.16-0.683,0.249-1.365,0.277-2.041c0.015-0.332,0.014-0.662-0.002-0.99c-0.228-4.803-3.601-9.069-8.515-10.214
			c-5.933-1.382-11.862,2.31-13.245,8.242c-0.3,1.291-0.36,2.582-0.21,3.824c0.04,0.328,0.096,0.652,0.164,0.973
			C87.658,66.347,87.767,66.748,87.9,67.145z"/>
		<path id="id_106" fill="#1C8E90" d="M62.687,66.143c0.423,1.818,1.276,3.426,2.424,4.742c0.056,0.064,0.113,0.126,0.17,0.19
			c0.243,0.265,0.499,0.519,0.766,0.759c2.588,2.328,6.235,3.4,9.884,2.55c0.889-0.208,1.727-0.52,2.506-0.914
			c0.299-0.153,0.588-0.318,0.869-0.495c0.019-0.011,0.039-0.023,0.057-0.035c0.301-0.192,0.59-0.397,0.868-0.614
			c0.404-0.318,0.784-0.662,1.138-1.03c0.691-0.719,1.283-1.525,1.756-2.4c0.305-0.561,0.562-1.146,0.765-1.753
			c0.132-0.395,0.242-0.796,0.329-1.206c0.068-0.321,0.125-0.645,0.164-0.973c0.15-1.243,0.091-2.533-0.21-3.824
			c-1.381-5.932-7.312-9.624-13.245-8.242c-4.914,1.145-8.286,5.411-8.514,10.214c-0.016,0.328-0.017,0.658-0.002,0.99
			C62.438,64.778,62.527,65.46,62.687,66.143z"/>
	</g>
	<g>
		<path id="id_101_3_" fill="#FCB64C" d="M149.392,4.339c16.668,5.228,21.058,13.632,15.836,30.282
			c-5.226,16.668-13.629,21.06-30.297,15.833c-16.649-5.221-21.042-13.624-15.816-30.292C124.337,3.51,132.741-0.882,149.392,4.339z
			"/>
		<g id="_292702392">
			<path id="id_102_2_" fill="#FFFFFF" d="M141.533,44.503l-13.24-6.095c-1.682-0.775-2.443-2.836-1.668-4.519l9.943-21.595
				c0.774-1.681,2.834-2.442,4.518-1.667l13.239,6.094c1.683,0.775,2.443,2.836,1.668,4.518l-9.943,21.596
				C145.274,44.518,143.215,45.278,141.533,44.503z M140.735,11.386c-1.302-0.599-2.808-0.043-3.408,1.259l-9.944,21.595
				c-0.6,1.303-0.043,2.808,1.26,3.408l13.239,6.097c1.303,0.599,2.808,0.042,3.408-1.26l9.944-21.595
				c0.599-1.302,0.043-2.808-1.259-3.407L140.735,11.386z"/>
			<path id="id_103_1_" fill="#FFFFFF" d="M138.036,34.673c-1.899-0.875-3.34-2.458-4.018-4.415
				c-0.731-1.98-0.692-4.067,0.183-5.966c0.874-1.899,2.458-3.339,4.415-4.019c1.98-0.73,4.067-0.691,5.965,0.183
				c1.9,0.875,3.341,2.46,4.018,4.416c0.757,1.926,0.692,4.066-0.183,5.965c-0.875,1.9-2.458,3.341-4.414,4.018
				C142.076,35.612,139.935,35.548,138.036,34.673z M144.232,21.216c-3.473-1.598-7.648-0.101-9.272,3.426
				c-1.599,3.472-0.047,7.672,3.426,9.271c3.527,1.624,7.672,0.048,9.271-3.425C149.281,26.961,147.759,22.84,144.232,21.216z"/>
			<path id="id_104_1_" fill="#FFFFFF" d="M138.52,29.767c-0.108-0.05-0.192-0.155-0.221-0.234l-1.113-3.011
				c-0.087-0.238,0.012-0.455,0.25-0.542c0.238-0.088,0.455,0.012,0.543,0.249l0.966,2.615l6.894-2.546
				c0.238-0.088,0.455,0.012,0.543,0.249c0.087,0.239-0.013,0.455-0.25,0.543l-7.291,2.692
				C138.762,29.811,138.628,29.817,138.52,29.767z"/>
			<path id="id_105_1_" fill="#FFFFFF" d="M154.988,22.422l-18.665-8.595c-0.217-0.1-0.305-0.338-0.205-0.556
				c0.1-0.218,0.337-0.305,0.555-0.205l18.665,8.594c0.217,0.1,0.305,0.338,0.205,0.556
				C155.443,22.434,155.206,22.521,154.988,22.422z"/>
			<path id="id_106_1_" fill="#FFFFFF" d="M145.944,42.063l-18.666-8.595c-0.217-0.1-0.305-0.338-0.205-0.555
				c0.1-0.216,0.337-0.305,0.555-0.205l18.666,8.595c0.216,0.1,0.304,0.337,0.204,0.555
				C146.399,42.075,146.162,42.164,145.944,42.063z"/>
			<path id="id_107" fill="#FFFFFF" d="M148.73,17.303l-4.449-2.048c-0.217-0.1-0.305-0.337-0.205-0.554
				c0.1-0.217,0.338-0.306,0.555-0.206l4.449,2.048c0.217,0.1,0.305,0.338,0.205,0.555C149.185,17.316,148.947,17.404,148.73,17.303
				z"/>
			<path id="id_108" fill="#FFFFFF" d="M137.987,40.636l-4.45-2.049c-0.217-0.099-0.305-0.338-0.205-0.555s0.338-0.305,0.555-0.205
				l4.45,2.049c0.217,0.1,0.305,0.337,0.205,0.555C138.442,40.647,138.204,40.735,137.987,40.636z"/>
		</g>
	</g>
	<g>
		<path id="id_101" fill="#FCB64C" d="M19.436,7.91C34.127,2.322,41.91,5.817,47.491,20.492
			c5.588,14.691,2.095,22.475-12.596,28.062C20.22,54.136,12.436,50.642,6.849,35.951C1.267,21.276,4.761,13.492,19.436,7.91z"/>
		<g>
			<g>
				<g>
					<polygon id="id_115" fill="#FFFFFF" points="29.345,13.151 39.867,34.669 22.389,43.216 14.895,27.884 20.781,25.009 
						17.756,18.819 					"/>
				</g>
			</g>
			<g>
				<g>
					<g>
						<path id="id_116" fill="#FCB74C" d="M28.445,27.535l-9.603,4.696c-0.201,0.098-0.447,0.012-0.544-0.188
							c-0.098-0.201-0.014-0.446,0.187-0.544l9.603-4.695c0.2-0.098,0.446-0.014,0.544,0.188
							C28.729,27.191,28.646,27.437,28.445,27.535z"/>
					</g>
				</g>
			</g>
			<g>
				<g>
					<g>
						<path id="id_117" fill="#FCB74C" d="M28.87,30.525l-8.765,4.287c-0.201,0.098-0.447,0.015-0.544-0.186
							c-0.099-0.202-0.015-0.447,0.187-0.545l8.767-4.287c0.202-0.098,0.446-0.013,0.544,0.188
							C29.155,30.183,29.073,30.427,28.87,30.525z"/>
					</g>
				</g>
			</g>
			<g>
				<g>
					<g>
						<path id="id_118" fill="#FCB74C" d="M34.136,27.952l-1.998,0.977c-0.2,0.098-0.446,0.014-0.543-0.188
							c-0.099-0.2-0.015-0.445,0.186-0.543l1.998-0.978c0.202-0.098,0.447-0.013,0.545,0.188
							C34.421,27.609,34.337,27.852,34.136,27.952z"/>
					</g>
				</g>
			</g>
			<g>
				<g>
					<g>
						<path id="id_119" fill="#FCB74C" d="M28.976,24.082l-11.396,5.571c-0.199,0.098-0.444,0.013-0.544-0.188
							c-0.098-0.201-0.014-0.446,0.188-0.544l11.39-5.569c0.2-0.098,0.445-0.015,0.543,0.188
							C29.256,23.741,29.178,23.983,28.976,24.082z"/>
					</g>
				</g>
			</g>
			<g>
				<g>
					<g>
						<path id="id_120" fill="#FCB74C" d="M28.203,21.107l-5.362,2.621c-0.202,0.099-0.447,0.014-0.545-0.186
							c-0.099-0.201-0.014-0.446,0.187-0.544l5.356-2.62c0.203-0.098,0.447-0.015,0.545,0.188
							C28.487,20.765,28.403,21.01,28.203,21.107z"/>
					</g>
				</g>
			</g>
			<g>
				<g>
					<g>
						<path id="id_121" fill="#FCB74C" d="M27.973,17.862l-6.458,3.156c-0.201,0.098-0.447,0.014-0.543-0.187
							c-0.099-0.201-0.016-0.446,0.186-0.544l6.453-3.156c0.202-0.097,0.448-0.013,0.546,0.188
							C28.254,17.52,28.174,17.762,27.973,17.862z"/>
					</g>
				</g>
			</g>
			<g>
				<g>
					<g>
						<path id="id_122" fill="#FCB74C" d="M36.661,33.117l-14.031,6.86c-0.201,0.098-0.445,0.015-0.544-0.187
							s-0.015-0.446,0.187-0.545l14.032-6.859c0.202-0.098,0.446-0.016,0.544,0.186C36.948,32.773,36.862,33.019,36.661,33.117z"/>
					</g>
				</g>
			</g>
			<g>
				<g>
					<g>
						<path id="id_123" fill="#FCB74C" d="M35.401,30.539l-14.031,6.86c-0.201,0.098-0.446,0.014-0.545-0.187
							c-0.099-0.201-0.015-0.447,0.187-0.545l14.031-6.86c0.202-0.099,0.447-0.014,0.545,0.187
							C35.687,30.196,35.602,30.44,35.401,30.539z"/>
					</g>
				</g>
			</g>
			<g>
				<g>
					<g>
						<polygon id="id_124" fill="#FFFFFF" points="16.558,19.405 19.036,24.473 14.352,26.763 						"/>
					</g>
				</g>
			</g>
			<g>
				<g>
					<g>
						<g>
							<path id="id_125" fill="#FFFFFF" d="M34.334,10.033l-1.53,10.205l0.315,0.645l-0.609,4.046
								c-0.029,0.139-0.059,0.273-0.097,0.405c-0.039,0.15-0.093,0.296-0.16,0.436l0,0l-0.178,0.319l-0.535,0.946l-0.412,0.733
								l-1.197,2.139l-0.373-2.385l-0.129-0.82l-0.181-1.147l-0.067-0.426c-0.013-0.05,0-0.221,0.017-0.404
								c0.031-0.288,0.076-0.61,0.076-0.61l1.279-8.481l0.314,0.646l1.005-6.62c0.081-0.624,0.38-1.192,0.779-1.491
								c0.144-0.109,0.363-0.227,0.602-0.191l0.204,0.036C34.076,8.103,34.482,9.05,34.334,10.033z"/>
						</g>
					</g>
					<g>
						<g>
							<path id="id_126" fill="#FCB74C" d="M30.25,14.998l-1.261,8.358l-0.106,0.709c-0.004,0.023-0.005,0.047-0.011,0.067
								c-0.106,0.767-0.1,0.979-0.082,1.06c-0.002,0.006-0.001,0.011,0.001,0.016l0.749,4.76c0.027,0.173,0.16,0.307,0.329,0.337
								c0.085,0.014,0.171,0.005,0.25-0.032c0.072-0.036,0.135-0.095,0.179-0.167l2.313-4.138c0.003-0.007,0.005-0.014,0.01-0.017
								c0.148-0.298,0.222-0.601,0.292-0.934c0-0.006,0.003-0.013,0.003-0.025l0.52-3.465l-0.631-1.29l-0.691,4.62
								c-0.035,0.141-0.059,0.272-0.097,0.392c-0.032,0.119-0.07,0.228-0.122,0.332l-0.03,0.056l-0.208,0.373l-0.523,0.935
								l-0.211,0.376l-0.212,0.381l-0.545,0.98l-0.173-1.094l-0.063-0.422l-0.065-0.422l-0.174-1.104l-0.065-0.427l-0.023-0.141
								c0-0.045,0.008-0.145,0.02-0.271c0.02-0.18,0.048-0.413,0.078-0.616l1.189-7.898"/>
						</g>
					</g>
				</g>
				<g>
					<g>
						<g>
							<path id="id_127" fill="#FCB74C" d="M31.522,27.758c-0.073,0.035-0.158,0.049-0.243,0.039l-1.825-0.286
								c-0.222-0.034-0.375-0.242-0.34-0.463c0.035-0.22,0.242-0.374,0.462-0.338l1.828,0.285c0.22,0.032,0.373,0.241,0.339,0.461
								C31.729,27.59,31.64,27.699,31.522,27.758z"/>
						</g>
					</g>
				</g>
				<g>
					<g>
						<g>
							<path id="id_128" fill="#FCB74C" d="M32.444,26.078c-0.078,0.039-0.163,0.051-0.254,0.035l-3.078-0.574
								c-0.219-0.041-0.367-0.251-0.324-0.476c0.04-0.218,0.251-0.366,0.475-0.323l3.079,0.572c0.218,0.041,0.366,0.252,0.323,0.476
								C32.644,25.918,32.56,26.022,32.444,26.078z"/>
						</g>
					</g>
				</g>
			</g>
		</g>
	</g>
</g>
</svg>
