<?xml version="1.0" encoding="utf-8"?>
<!-- Generator: Adobe Illustrator 18.1.1, SVG Export Plug-In . SVG Version: 6.00 Build 0)  -->
<svg version="1.1" id="Layer_1" xmlns="http://www.w3.org/2000/svg" xmlns:xlink="http://www.w3.org/1999/xlink" x="0px" y="0px"
	 viewBox="-22 314.3 565.1 164.7" enable-background="new -22 314.3 565.1 164.7" xml:space="preserve">
<g>
	<path d="M160.4,395V433h-11.5V395h-13.5v-9.9h38.5v9.9H160.4z"/>
	<path d="M171.6,403.9c2-1.9,4.3-3.3,6.9-4.3c2.6-0.9,5.3-1.4,8.1-1.4c2.8,0,5.2,0.3,7.2,1c2,0.7,3.5,1.8,4.8,3.2
		c1.2,1.5,2.1,3.3,2.7,5.5c0.6,2.2,0.8,4.9,0.8,7.9V433h-10.1v-3.6h-0.2c-0.9,1.4-2.1,2.5-3.9,3.2c-1.7,0.8-3.6,1.1-5.6,1.1
		c-1.4,0-2.7-0.2-4.2-0.5c-1.4-0.4-2.8-0.9-3.9-1.8c-1.2-0.8-2.2-1.9-2.9-3.2c-0.8-1.4-1.1-3-1.1-5c0-2.4,0.7-4.4,2-5.9
		c1.3-1.5,3-2.6,5.1-3.4c2.1-0.8,4.4-1.4,7-1.6c2.6-0.3,5.1-0.4,7.5-0.4v-0.5c0-1.7-0.6-2.9-1.8-3.7c-1.2-0.8-2.6-1.2-4.3-1.2
		c-1.6,0-3.1,0.3-4.6,1c-1.5,0.7-2.7,1.5-3.7,2.4L171.6,403.9z M191.9,418.3h-1.4c-1.2,0-2.4,0.1-3.7,0.2c-1.2,0.1-2.3,0.3-3.3,0.6
		c-1,0.3-1.8,0.8-2.4,1.4c-0.6,0.6-0.9,1.4-0.9,2.4c0,0.6,0.1,1.2,0.4,1.6c0.3,0.4,0.7,0.8,1.1,1.1s1,0.5,1.6,0.6
		c0.6,0.1,1.1,0.2,1.7,0.2c2.3,0,4-0.6,5.2-1.9c1.2-1.2,1.8-2.9,1.8-5L191.9,418.3L191.9,418.3z"/>
	<path d="M230.1,409.3c-0.9-0.9-2-1.6-3.2-2.2c-1.2-0.6-2.5-0.9-3.8-0.9c-1,0-2,0.2-2.9,0.6s-1.3,1.1-1.3,2.1c0,0.9,0.5,1.6,1.5,2
		c1,0.4,2.5,0.9,4.7,1.4c1.3,0.3,2.5,0.7,3.8,1.1c1.3,0.5,2.4,1.1,3.5,2c1,0.8,1.9,1.8,2.5,3c0.6,1.2,0.9,2.6,0.9,4.2
		c0,2.1-0.4,3.9-1.3,5.4c-0.9,1.5-2,2.6-3.3,3.5c-1.4,0.9-2.9,1.6-4.6,2c-1.7,0.4-3.4,0.6-5.1,0.6c-2.7,0-5.4-0.4-8.1-1.3
		c-2.6-0.9-4.8-2.2-6.6-3.9l6.2-6.5c1,1.1,2.2,2,3.6,2.7s3,1.1,4.6,1.1c0.9,0,1.8-0.2,2.7-0.6c0.9-0.4,1.3-1.2,1.3-2.3
		c0-1-0.5-1.8-1.6-2.3c-1.1-0.5-2.8-1-5.1-1.6c-1.2-0.3-2.3-0.6-3.5-1.1c-1.2-0.4-2.2-1.1-3.1-1.8c-0.9-0.8-1.7-1.7-2.3-2.8
		c-0.6-1.1-0.9-2.5-0.9-4c0-2,0.4-3.7,1.3-5.2c0.9-1.4,2-2.6,3.3-3.5c1.4-0.9,2.8-1.6,4.5-2c1.6-0.4,3.3-0.6,4.9-0.6
		c2.5,0,5,0.4,7.4,1.2c2.4,0.8,4.4,2,6.1,3.5L230.1,409.3z"/>
	<path d="M278.2,433h-13.7l-11-16.1h-0.2V433h-11.1v-51h11.1V413h0.2l10.7-13.6h13.4l-13,15.2L278.2,433z"/>
	<path d="M299.8,433v-47.8h11.6V433L299.8,433L299.8,433z"/>
	<path d="M340.4,409.3c-0.9-0.9-2-1.6-3.2-2.2c-1.2-0.6-2.5-0.9-3.8-0.9c-1,0-2,0.2-2.9,0.6c-0.9,0.4-1.3,1.1-1.3,2.1
		c0,0.9,0.5,1.6,1.5,2c1,0.4,2.5,0.9,4.7,1.4c1.3,0.3,2.5,0.7,3.8,1.1c1.3,0.5,2.4,1.1,3.5,2c1,0.8,1.9,1.8,2.5,3
		c0.6,1.2,0.9,2.6,0.9,4.2c0,2.1-0.4,3.9-1.3,5.4c-0.9,1.5-2,2.6-3.3,3.5c-1.4,0.9-2.9,1.6-4.6,2c-1.7,0.4-3.4,0.6-5.1,0.6
		c-2.7,0-5.4-0.4-8.1-1.3c-2.6-0.9-4.8-2.2-6.6-3.9l6.2-6.5c1,1.1,2.2,2,3.6,2.7c1.4,0.7,3,1.1,4.6,1.1c0.9,0,1.8-0.2,2.7-0.6
		c0.9-0.4,1.3-1.2,1.3-2.3c0-1-0.5-1.8-1.6-2.3c-1.1-0.5-2.8-1-5.1-1.6c-1.2-0.3-2.3-0.6-3.5-1.1c-1.2-0.4-2.2-1.1-3.1-1.8
		c-0.9-0.8-1.7-1.7-2.3-2.8c-0.6-1.1-0.9-2.5-0.9-4c0-2,0.4-3.7,1.3-5.2c0.9-1.4,2-2.6,3.3-3.5c1.4-0.9,2.8-1.6,4.5-2
		c1.6-0.4,3.3-0.6,4.9-0.6c2.5,0,5,0.4,7.4,1.2c2.4,0.8,4.4,2,6.1,3.5L340.4,409.3z"/>
	<path d="M372.3,409.3c-0.9-0.9-2-1.6-3.2-2.2c-1.2-0.6-2.5-0.9-3.8-0.9c-1,0-2,0.2-2.9,0.6c-0.9,0.4-1.3,1.1-1.3,2.1
		c0,0.9,0.5,1.6,1.5,2c1,0.4,2.5,0.9,4.7,1.4c1.3,0.3,2.5,0.7,3.8,1.1c1.3,0.5,2.4,1.1,3.5,2c1,0.8,1.9,1.8,2.5,3
		c0.6,1.2,0.9,2.6,0.9,4.2c0,2.1-0.4,3.9-1.3,5.4c-0.9,1.5-2,2.6-3.3,3.5c-1.4,0.9-2.9,1.6-4.6,2c-1.7,0.4-3.4,0.6-5.1,0.6
		c-2.7,0-5.4-0.4-8.1-1.3c-2.6-0.9-4.8-2.2-6.6-3.9l6.2-6.5c1,1.1,2.2,2,3.6,2.7c1.4,0.7,3,1.1,4.6,1.1c0.9,0,1.8-0.2,2.7-0.6
		c0.9-0.4,1.3-1.2,1.3-2.3c0-1-0.5-1.8-1.6-2.3c-1.1-0.5-2.8-1-5.1-1.6c-1.2-0.3-2.3-0.6-3.5-1.1c-1.2-0.4-2.2-1.1-3.1-1.8
		c-0.9-0.8-1.7-1.7-2.3-2.8c-0.6-1.1-0.9-2.5-0.9-4c0-2,0.4-3.7,1.3-5.2c0.9-1.4,2-2.6,3.3-3.5c1.4-0.9,2.8-1.6,4.5-2
		c1.6-0.4,3.3-0.6,4.9-0.6c2.5,0,5,0.4,7.4,1.2c2.4,0.8,4.4,2,6.1,3.5L372.3,409.3z"/>
	<path d="M406.5,433v-4.7h-0.1c-0.4,0.8-0.9,1.5-1.6,2.2c-0.7,0.7-1.4,1.3-2.3,1.8s-1.8,0.9-2.9,1.2c-1.1,0.3-2.2,0.5-3.3,0.5
		c-2.3,0-4.2-0.4-5.7-1.2c-1.6-0.8-2.8-1.9-3.8-3.1c-1-1.3-1.7-2.7-2.1-4.4c-0.4-1.6-0.6-3.3-0.6-5v-20.8h11.1v18.2
		c0,0.9,0.1,1.8,0.2,2.7c0.1,0.9,0.4,1.6,0.8,2.3s0.9,1.2,1.5,1.6c0.6,0.4,1.5,0.6,2.5,0.6c1.9,0,3.4-0.7,4.4-2.2
		c1-1.4,1.5-3.1,1.5-5.1v-18.2h11.1V433L406.5,433L406.5,433z"/>
	<path d="M459.2,416.6c0,0.5,0,0.9,0,1.4c0,0.5,0,0.9-0.1,1.3h-24.4c0.1,0.9,0.4,1.8,0.8,2.6c0.5,0.8,1.1,1.4,1.8,2
		c0.7,0.6,1.6,1,2.5,1.3c0.9,0.3,1.9,0.5,2.9,0.5c1.8,0,3.2-0.3,4.5-1c1.2-0.7,2.2-1.5,3-2.5l7.7,4.9c-1.6,2.3-3.7,4.1-6.2,5.3
		c-2.6,1.2-5.6,1.9-9,1.9c-2.5,0-4.9-0.4-7.2-1.2c-2.3-0.8-4.2-1.9-5.9-3.4c-1.7-1.5-3-3.4-4-5.6c-1-2.2-1.5-4.7-1.5-7.6
		c0-2.7,0.5-5.2,1.4-7.5c0.9-2.2,2.2-4.1,3.8-5.7s3.5-2.8,5.7-3.6c2.2-0.9,4.6-1.3,7.2-1.3c2.5,0,4.7,0.4,6.8,1.2
		c2.1,0.8,3.8,2,5.3,3.6c1.5,1.6,2.6,3.5,3.5,5.7C458.7,411.1,459.2,413.7,459.2,416.6z M449,412.3c0-1.8-0.6-3.3-1.7-4.5
		c-1.1-1.3-2.8-1.9-5-1.9c-1.1,0-2.1,0.2-3,0.5c-0.9,0.3-1.7,0.8-2.4,1.4c-0.7,0.6-1.2,1.3-1.6,2.1s-0.6,1.6-0.7,2.5
		C434.7,412.3,449,412.3,449,412.3z"/>
	<path d="M485.8,409.3c-0.9-0.9-2-1.6-3.2-2.2c-1.2-0.6-2.5-0.9-3.8-0.9c-1,0-2,0.2-2.9,0.6c-0.9,0.4-1.3,1.1-1.3,2.1
		c0,0.9,0.5,1.6,1.5,2c1,0.4,2.5,0.9,4.7,1.4c1.3,0.3,2.5,0.7,3.8,1.1c1.3,0.5,2.4,1.1,3.5,2c1,0.8,1.9,1.8,2.5,3
		c0.6,1.2,0.9,2.6,0.9,4.2c0,2.1-0.4,3.9-1.3,5.4c-0.9,1.5-2,2.6-3.3,3.5c-1.4,0.9-2.9,1.6-4.6,2c-1.7,0.4-3.4,0.6-5.1,0.6
		c-2.7,0-5.4-0.4-8.1-1.3c-2.6-0.9-4.8-2.2-6.6-3.9l6.2-6.5c1,1.1,2.2,2,3.6,2.7c1.4,0.7,3,1.1,4.6,1.1c0.9,0,1.8-0.2,2.7-0.6
		c0.9-0.4,1.3-1.2,1.3-2.3c0-1-0.5-1.8-1.6-2.3c-1.1-0.5-2.8-1-5.1-1.6c-1.2-0.3-2.3-0.6-3.5-1.1c-1.2-0.4-2.2-1.1-3.1-1.8
		c-0.9-0.8-1.7-1.7-2.3-2.8c-0.6-1.1-0.9-2.5-0.9-4c0-2,0.4-3.7,1.3-5.2c0.9-1.4,2-2.6,3.3-3.5c1.4-0.9,2.8-1.6,4.5-2
		c1.6-0.4,3.3-0.6,4.9-0.6c2.5,0,5,0.4,7.4,1.2c2.4,0.8,4.4,2,6.1,3.5L485.8,409.3z"/>
</g>
<g>
	<path fill="#777677" d="M159.1,457.1c0,1.2-0.2,2.2-0.7,3.1c-0.4,0.8-1.1,1.5-1.8,2c-0.8,0.5-1.6,0.9-2.6,1.1c-1,0.2-2,0.4-3.1,0.4
		h-2.5v7.8h-5v-20.7h7.6c1.1,0,2.2,0.1,3.2,0.3s1.8,0.6,2.6,1.1c0.7,0.5,1.3,1.2,1.7,2C158.9,454.9,159.1,455.9,159.1,457.1z
		 M154.1,457.1c0-0.5-0.1-0.9-0.3-1.2s-0.5-0.6-0.8-0.7c-0.3-0.2-0.7-0.3-1.1-0.4c-0.4-0.1-0.9-0.1-1.3-0.1h-2.2v4.9h2.1
		c0.5,0,0.9,0,1.3-0.1c0.4-0.1,0.8-0.2,1.2-0.4c0.3-0.2,0.6-0.5,0.8-0.8C154,458,154.1,457.6,154.1,457.1z"/>
	<path fill="#777677" d="M175.8,464.1c0,1.2-0.2,2.3-0.6,3.2c-0.4,1-1,1.8-1.8,2.5c-0.7,0.7-1.6,1.2-2.6,1.6c-1,0.4-2,0.6-3.1,0.6
		c-1.1,0-2.1-0.2-3.1-0.6c-1-0.4-1.8-0.9-2.6-1.6c-0.7-0.7-1.3-1.5-1.7-2.5c-0.4-1-0.6-2-0.6-3.2c0-1.2,0.2-2.3,0.6-3.2
		c0.4-1,1-1.8,1.7-2.4c0.7-0.7,1.6-1.2,2.6-1.5c1-0.4,2-0.5,3.1-0.5c1.1,0,2.2,0.2,3.1,0.5s1.8,0.9,2.6,1.5c0.7,0.7,1.3,1.5,1.8,2.4
		C175.6,461.8,175.8,462.9,175.8,464.1z M171.2,464.1c0-0.5-0.1-0.9-0.2-1.4s-0.4-0.8-0.7-1.2c-0.3-0.3-0.7-0.6-1.1-0.8
		c-0.4-0.2-0.9-0.3-1.5-0.3s-1.1,0.1-1.5,0.3c-0.4,0.2-0.8,0.5-1.1,0.8c-0.3,0.3-0.5,0.7-0.6,1.2c-0.1,0.4-0.2,0.9-0.2,1.4
		c0,0.5,0.1,0.9,0.2,1.4s0.4,0.9,0.7,1.2c0.3,0.4,0.7,0.6,1.1,0.9c0.4,0.2,0.9,0.3,1.5,0.3c0.6,0,1.1-0.1,1.5-0.3
		c0.4-0.2,0.8-0.5,1.1-0.9c0.3-0.4,0.5-0.8,0.7-1.2S171.2,464.6,171.2,464.1z"/>
	<path fill="#777677" d="M197.4,471.4h-4.8l-2.9-9.1h-0.1l-2.8,9.1H182l-5-14.6h5.2l2.5,9.2h0.1l2.6-9.2h4.8l2.7,9.2h0.1l2.5-9.2h5
		L197.4,471.4z"/>
	<path fill="#777677" d="M218.7,464.3c0,0.2,0,0.4,0,0.6c0,0.2,0,0.4,0,0.6h-10.6c0,0.4,0.2,0.8,0.4,1.1s0.5,0.6,0.8,0.9
		c0.3,0.2,0.7,0.4,1.1,0.6c0.4,0.1,0.8,0.2,1.2,0.2c0.8,0,1.4-0.1,1.9-0.4s1-0.6,1.3-1.1l3.3,2.1c-0.7,1-1.6,1.8-2.7,2.3
		c-1.1,0.5-2.4,0.8-3.9,0.8c-1.1,0-2.1-0.2-3.1-0.5c-1-0.3-1.8-0.8-2.6-1.5c-0.7-0.7-1.3-1.5-1.7-2.4c-0.4-1-0.6-2-0.6-3.3
		c0-1.2,0.2-2.3,0.6-3.2s1-1.8,1.7-2.5c0.7-0.7,1.5-1.2,2.5-1.6c1-0.4,2-0.6,3.1-0.6c1.1,0,2.1,0.2,3,0.5c0.9,0.4,1.7,0.9,2.3,1.6
		c0.6,0.7,1.1,1.5,1.5,2.5C218.6,462,218.7,463.1,218.7,464.3z M214.3,462.5c0-0.8-0.2-1.4-0.7-2c-0.5-0.5-1.2-0.8-2.1-0.8
		c-0.5,0-0.9,0.1-1.3,0.2s-0.7,0.3-1,0.6c-0.3,0.3-0.5,0.6-0.7,0.9s-0.3,0.7-0.3,1.1L214.3,462.5L214.3,462.5z"/>
	<path fill="#777677" d="M231.2,460.8c-0.2-0.1-0.4-0.1-0.6-0.1c-0.2,0-0.4,0-0.6,0c-0.6,0-1.2,0.1-1.6,0.4
		c-0.4,0.2-0.8,0.5-1.1,0.8c-0.3,0.3-0.5,0.7-0.6,1.1c-0.1,0.4-0.2,0.7-0.2,1v7.5h-4.8v-14.5h4.6v2.1h0.1c0.4-0.7,0.9-1.4,1.6-1.8
		s1.5-0.7,2.4-0.7c0.2,0,0.4,0,0.6,0c0.2,0,0.3,0,0.5,0.1L231.2,460.8z"/>
	<path fill="#777677" d="M247.2,464.3c0,0.2,0,0.4,0,0.6c0,0.2,0,0.4,0,0.6h-10.6c0,0.4,0.2,0.8,0.4,1.1s0.5,0.6,0.8,0.9
		c0.3,0.2,0.7,0.4,1.1,0.6c0.4,0.1,0.8,0.2,1.2,0.2c0.8,0,1.4-0.1,1.9-0.4c0.5-0.3,1-0.6,1.3-1.1l3.3,2.1c-0.7,1-1.6,1.8-2.7,2.3
		c-1.1,0.5-2.4,0.8-3.9,0.8c-1.1,0-2.1-0.2-3.1-0.5c-1-0.3-1.8-0.8-2.6-1.5c-0.7-0.7-1.3-1.5-1.7-2.4c-0.4-1-0.6-2-0.6-3.3
		c0-1.2,0.2-2.3,0.6-3.2s1-1.8,1.7-2.5c0.7-0.7,1.5-1.2,2.5-1.6c1-0.4,2-0.6,3.1-0.6c1.1,0,2.1,0.2,3,0.5c0.9,0.4,1.7,0.9,2.3,1.6
		c0.6,0.7,1.1,1.5,1.5,2.5C247,462,247.2,463.1,247.2,464.3z M242.8,462.5c0-0.8-0.2-1.4-0.7-2c-0.5-0.5-1.2-0.8-2.1-0.8
		c-0.5,0-0.9,0.1-1.3,0.2s-0.7,0.3-1,0.6c-0.3,0.3-0.5,0.6-0.7,0.9s-0.3,0.7-0.3,1.1L242.8,462.5L242.8,462.5z"/>
	<path fill="#777677" d="M261.2,471.4v-1.9h-0.1c-0.5,0.7-1.1,1.3-2,1.7c-0.9,0.4-1.8,0.6-2.8,0.6c-1.1,0-2.1-0.2-2.9-0.6
		c-0.9-0.4-1.6-1-2.2-1.7c-0.6-0.7-1-1.5-1.4-2.5c-0.3-0.9-0.5-1.9-0.5-2.9c0-1,0.2-2,0.5-2.9c0.3-0.9,0.8-1.7,1.4-2.4
		c0.6-0.7,1.3-1.3,2.2-1.7s1.8-0.6,2.9-0.6c1.1,0,2,0.2,2.7,0.6s1.3,0.9,1.7,1.3h0.1v-9.1h4.8v22.1L261.2,471.4L261.2,471.4z
		 M261,464.1c0-0.5-0.1-0.9-0.2-1.4s-0.4-0.8-0.7-1.2c-0.3-0.4-0.7-0.6-1.1-0.8c-0.4-0.2-0.9-0.3-1.5-0.3c-0.6,0-1.1,0.1-1.5,0.3
		c-0.4,0.2-0.8,0.5-1.1,0.8c-0.3,0.3-0.5,0.7-0.7,1.2c-0.1,0.4-0.2,0.9-0.2,1.4c0,0.5,0.1,0.9,0.2,1.4c0.1,0.5,0.4,0.9,0.7,1.2
		c0.3,0.4,0.7,0.6,1.1,0.8c0.4,0.2,0.9,0.3,1.5,0.3c0.5,0,1-0.1,1.5-0.3c0.4-0.2,0.8-0.5,1.1-0.8s0.5-0.8,0.7-1.2
		S261,464.6,261,464.1z"/>
	<path fill="#777677" d="M292.9,464.1c0,1-0.2,2-0.5,2.9c-0.3,0.9-0.8,1.8-1.4,2.5s-1.3,1.3-2.2,1.7c-0.9,0.4-1.8,0.6-2.9,0.6
		c-1,0-1.9-0.2-2.8-0.6c-0.9-0.4-1.5-1-2-1.7h-0.1v1.9h-4.4v-22.1h4.8v9.1h0.1c0.4-0.5,1-0.9,1.7-1.3c0.7-0.4,1.6-0.6,2.7-0.6
		c1.1,0,2,0.2,2.9,0.6c0.8,0.4,1.6,1,2.2,1.7c0.6,0.7,1.1,1.5,1.4,2.4C292.8,462.1,292.9,463.1,292.9,464.1z M288.3,464.1
		c0-0.5-0.1-0.9-0.2-1.4c-0.1-0.4-0.4-0.8-0.7-1.2s-0.7-0.6-1.1-0.8c-0.4-0.2-0.9-0.3-1.5-0.3c-0.5,0-1,0.1-1.5,0.3
		c-0.4,0.2-0.8,0.5-1.1,0.8c-0.3,0.4-0.5,0.8-0.7,1.2c-0.2,0.4-0.2,0.9-0.2,1.4c0,0.5,0.1,0.9,0.2,1.4c0.2,0.4,0.4,0.8,0.7,1.2
		c0.3,0.4,0.7,0.6,1.1,0.8c0.4,0.2,0.9,0.3,1.5,0.3c0.6,0,1.1-0.1,1.5-0.3c0.4-0.2,0.8-0.5,1.1-0.8s0.5-0.8,0.7-1.2
		C288.3,465,288.3,464.6,288.3,464.1z"/>
	<path fill="#777677" d="M304.2,473.6c-0.3,0.8-0.6,1.4-1,2c-0.4,0.6-0.8,1.1-1.3,1.5s-1.1,0.7-1.8,0.9c-0.7,0.2-1.5,0.3-2.4,0.3
		c-0.4,0-0.9,0-1.4-0.1c-0.5-0.1-0.9-0.1-1.2-0.2l0.5-4c0.2,0.1,0.5,0.1,0.8,0.2c0.3,0,0.5,0.1,0.8,0.1c0.7,0,1.3-0.2,1.6-0.5
		c0.3-0.3,0.6-0.8,0.8-1.4l0.5-1.2l-6.1-14.3h5.3l3.2,9.4h0.1l2.9-9.4h5.1L304.2,473.6z"/>
	<path fill="#168D90" d="M338.9,471.4l0.1-14.6h-0.1l-5.4,14.6H330l-5.2-14.6h-0.1l0.1,14.6h-4.7v-20.7h7.1l4.7,13.3h0.1l4.5-13.3
		h7.2v20.7H338.9z"/>
	<path fill="#168D90" d="M347.6,458.9c0.9-0.8,1.9-1.4,3-1.8s2.3-0.6,3.5-0.6c1.2,0,2.3,0.2,3.1,0.5s1.5,0.8,2.1,1.4
		c0.5,0.6,0.9,1.4,1.2,2.4c0.2,1,0.4,2.1,0.4,3.4v7.3h-4.4v-1.5h-0.1c-0.4,0.6-0.9,1.1-1.7,1.4s-1.6,0.5-2.4,0.5
		c-0.6,0-1.2-0.1-1.8-0.2c-0.6-0.2-1.2-0.4-1.7-0.8c-0.5-0.4-0.9-0.8-1.3-1.4c-0.3-0.6-0.5-1.3-0.5-2.2c0-1.1,0.3-1.9,0.9-2.5
		c0.6-0.6,1.3-1.1,2.2-1.5c0.9-0.4,1.9-0.6,3-0.7c1.1-0.1,2.2-0.2,3.2-0.2v-0.2c0-0.7-0.3-1.3-0.8-1.6c-0.5-0.3-1.1-0.5-1.9-0.5
		c-0.7,0-1.3,0.1-2,0.4c-0.6,0.3-1.2,0.6-1.6,1.1L347.6,458.9z M356.4,465.1h-0.6c-0.5,0-1.1,0-1.6,0.1s-1,0.1-1.4,0.3
		c-0.4,0.1-0.8,0.3-1,0.6s-0.4,0.6-0.4,1c0,0.3,0.1,0.5,0.2,0.7c0.1,0.2,0.3,0.4,0.5,0.5c0.2,0.1,0.4,0.2,0.7,0.2
		c0.3,0,0.5,0.1,0.7,0.1c1,0,1.7-0.3,2.2-0.8c0.5-0.5,0.8-1.3,0.8-2.2L356.4,465.1L356.4,465.1z"/>
	<path fill="#168D90" d="M373.8,460.8c-0.2-0.1-0.4-0.1-0.6-0.1c-0.2,0-0.4,0-0.6,0c-0.6,0-1.2,0.1-1.6,0.4s-0.8,0.5-1.1,0.8
		c-0.3,0.3-0.5,0.7-0.6,1.1c-0.1,0.4-0.2,0.7-0.2,1v7.5h-4.8v-14.5h4.6v2.1h0.1c0.4-0.7,0.9-1.4,1.6-1.8c0.7-0.5,1.5-0.7,2.4-0.7
		c0.2,0,0.4,0,0.6,0c0.2,0,0.3,0,0.5,0.1L373.8,460.8z"/>
	<path fill="#168D90" d="M384.1,473.6c-0.3,0.8-0.6,1.4-1,2c-0.4,0.6-0.8,1.1-1.3,1.5s-1.1,0.7-1.8,0.9c-0.7,0.2-1.5,0.3-2.4,0.3
		c-0.4,0-0.9,0-1.4-0.1c-0.5-0.1-0.9-0.1-1.2-0.2l0.5-4c0.2,0.1,0.5,0.1,0.8,0.2c0.3,0,0.5,0.1,0.8,0.1c0.7,0,1.3-0.2,1.6-0.5
		c0.3-0.3,0.6-0.8,0.8-1.4l0.5-1.2l-6.1-14.3h5.3l3.2,9.4h0.1l2.9-9.4h5.1L384.1,473.6z"/>
	<path fill="#168D90" d="M411,456.1c-0.4-0.5-1-1-1.7-1.3s-1.4-0.5-2-0.5c-0.3,0-0.7,0-1,0.1c-0.3,0.1-0.6,0.2-0.9,0.3
		c-0.3,0.2-0.5,0.4-0.7,0.6c-0.2,0.3-0.3,0.6-0.3,1c0,0.4,0.1,0.6,0.2,0.9c0.1,0.2,0.4,0.4,0.6,0.6c0.3,0.2,0.6,0.3,1,0.5
		c0.4,0.1,0.8,0.3,1.3,0.5c0.7,0.2,1.4,0.5,2.2,0.8c0.8,0.3,1.5,0.7,2.1,1.1c0.6,0.5,1.1,1,1.5,1.7c0.4,0.7,0.6,1.6,0.6,2.6
		c0,1.2-0.2,2.2-0.7,3.1s-1,1.6-1.8,2.1s-1.6,1-2.5,1.3c-1,0.3-1.9,0.4-3,0.4c-1.5,0-2.9-0.3-4.3-0.8c-1.4-0.5-2.5-1.3-3.4-2.2
		l3.3-3.3c0.5,0.6,1.2,1.1,2,1.6s1.7,0.6,2.5,0.6c0.4,0,0.7,0,1.1-0.1s0.7-0.2,0.9-0.4c0.3-0.2,0.5-0.4,0.6-0.7
		c0.2-0.3,0.2-0.6,0.2-1.1c0-0.4-0.1-0.7-0.3-1c-0.2-0.3-0.5-0.5-0.8-0.7c-0.4-0.2-0.8-0.4-1.3-0.6c-0.5-0.2-1.1-0.4-1.8-0.6
		c-0.7-0.2-1.3-0.5-1.9-0.8c-0.6-0.3-1.2-0.7-1.7-1.1c-0.5-0.5-0.9-1-1.2-1.7c-0.3-0.7-0.5-1.4-0.5-2.4c0-1.1,0.2-2.1,0.7-3
		s1.1-1.5,1.8-2c0.8-0.5,1.6-0.9,2.6-1.2c1-0.2,1.9-0.4,2.9-0.4c1.2,0,2.4,0.2,3.6,0.6c1.2,0.4,2.3,1.1,3.2,1.9L411,456.1z"/>
	<path fill="#168D90" d="M432.5,464.1c0,1.2-0.2,2.3-0.6,3.2c-0.4,1-1,1.8-1.8,2.5s-1.6,1.2-2.6,1.6c-1,0.4-2,0.6-3.1,0.6
		c-1.1,0-2.1-0.2-3.1-0.6c-1-0.4-1.8-0.9-2.6-1.6c-0.7-0.7-1.3-1.5-1.7-2.5c-0.4-1-0.6-2-0.6-3.2c0-1.2,0.2-2.3,0.6-3.2
		c0.4-1,1-1.8,1.7-2.4c0.7-0.7,1.6-1.2,2.6-1.5c1-0.4,2-0.5,3.1-0.5c1.1,0,2.2,0.2,3.1,0.5c1,0.4,1.8,0.9,2.6,1.5
		c0.7,0.7,1.3,1.5,1.8,2.4C432.3,461.8,432.5,462.9,432.5,464.1z M427.9,464.1c0-0.5-0.1-0.9-0.2-1.4s-0.4-0.8-0.7-1.2
		s-0.7-0.6-1.1-0.8c-0.4-0.2-0.9-0.3-1.5-0.3c-0.6,0-1.1,0.1-1.5,0.3c-0.4,0.2-0.8,0.5-1.1,0.8s-0.5,0.7-0.6,1.2
		c-0.1,0.4-0.2,0.9-0.2,1.4c0,0.5,0.1,0.9,0.2,1.4c0.1,0.4,0.4,0.9,0.7,1.2c0.3,0.4,0.7,0.6,1.1,0.9c0.4,0.2,0.9,0.3,1.5,0.3
		c0.6,0,1.1-0.1,1.5-0.3c0.4-0.2,0.8-0.5,1.1-0.9c0.3-0.4,0.5-0.8,0.7-1.2C427.8,465,427.9,464.6,427.9,464.1z"/>
	<path fill="#168D90" d="M444.6,452.9c-0.2-0.1-0.4-0.1-0.6-0.1c-0.2,0-0.5-0.1-0.7-0.1c-0.4,0-0.8,0.1-1.1,0.2
		c-0.3,0.2-0.5,0.4-0.6,0.6c-0.2,0.3-0.3,0.6-0.3,0.9s-0.1,0.7-0.1,1v1.5h3.2v3.6h-3.2v11h-4.8v-11h-2.7v-3.6h2.7v-1.4
		c0-0.9,0.1-1.7,0.3-2.6c0.2-0.8,0.5-1.5,1-2.1c0.5-0.6,1.1-1.1,1.9-1.5c0.8-0.4,1.8-0.5,3-0.5c0.4,0,0.8,0,1.2,0.1s0.8,0.1,1.1,0.2
		L444.6,452.9z"/>
	<path fill="#168D90" d="M450.7,460.4v5.6c0,0.7,0.1,1.2,0.4,1.5c0.3,0.3,0.7,0.5,1.4,0.5c0.2,0,0.5,0,0.7-0.1s0.5-0.1,0.7-0.2
		l0.1,3.5c-0.3,0.1-0.8,0.2-1.3,0.3c-0.5,0.1-1,0.1-1.5,0.1c-1,0-1.8-0.1-2.5-0.4c-0.7-0.2-1.2-0.6-1.6-1.1c-0.4-0.5-0.7-1-0.9-1.6
		c-0.2-0.6-0.3-1.3-0.3-2.1v-6.2h-2.3v-3.6h2.3V453h4.7v3.8h3.4v3.6H450.7z"/>
	<path fill="#168D90" d="M474.9,471.4H470l-2.9-9.1h-0.1l-2.8,9.1h-4.8l-5-14.6h5.2l2.5,9.2h0.1l2.6-9.2h4.8l2.7,9.2h0.1l2.5-9.2h5
		L474.9,471.4z"/>
	<path fill="#168D90" d="M481.6,458.9c0.9-0.8,1.9-1.4,3-1.8s2.3-0.6,3.5-0.6c1.2,0,2.3,0.2,3.1,0.5s1.5,0.8,2.1,1.4
		c0.5,0.6,0.9,1.4,1.2,2.4c0.2,1,0.4,2.1,0.4,3.4v7.3h-4.4v-1.5h-0.1c-0.4,0.6-0.9,1.1-1.7,1.4s-1.6,0.5-2.4,0.5
		c-0.6,0-1.2-0.1-1.8-0.2c-0.6-0.2-1.2-0.4-1.7-0.8c-0.5-0.4-0.9-0.8-1.3-1.4c-0.3-0.6-0.5-1.3-0.5-2.2c0-1.1,0.3-1.9,0.9-2.5
		c0.6-0.6,1.3-1.1,2.2-1.5c0.9-0.4,1.9-0.6,3-0.7c1.1-0.1,2.2-0.2,3.2-0.2v-0.2c0-0.7-0.3-1.3-0.8-1.6c-0.5-0.3-1.1-0.5-1.9-0.5
		c-0.7,0-1.3,0.1-2,0.4c-0.6,0.3-1.2,0.6-1.6,1.1L481.6,458.9z M490.4,465.1h-0.6c-0.5,0-1.1,0-1.6,0.1s-1,0.1-1.4,0.3
		c-0.4,0.1-0.8,0.3-1,0.6s-0.4,0.6-0.4,1c0,0.3,0.1,0.5,0.2,0.7c0.1,0.2,0.3,0.4,0.5,0.5c0.2,0.1,0.4,0.2,0.7,0.2
		c0.3,0,0.5,0.1,0.7,0.1c1,0,1.7-0.3,2.2-0.8c0.5-0.5,0.8-1.3,0.8-2.2L490.4,465.1L490.4,465.1z"/>
	<path fill="#168D90" d="M507.8,460.8c-0.2-0.1-0.4-0.1-0.6-0.1c-0.2,0-0.4,0-0.6,0c-0.6,0-1.2,0.1-1.6,0.4s-0.8,0.5-1.1,0.8
		c-0.3,0.3-0.5,0.7-0.6,1.1c-0.1,0.4-0.2,0.7-0.2,1v7.5h-4.8v-14.5h4.6v2.1h0.1c0.4-0.7,0.9-1.4,1.6-1.8c0.7-0.5,1.5-0.7,2.4-0.7
		c0.2,0,0.4,0,0.6,0c0.2,0,0.3,0,0.5,0.1L507.8,460.8z"/>
	<path fill="#168D90" d="M523.8,464.3c0,0.2,0,0.4,0,0.6c0,0.2,0,0.4,0,0.6h-10.6c0,0.4,0.2,0.8,0.4,1.1c0.2,0.3,0.5,0.6,0.8,0.9
		c0.3,0.2,0.7,0.4,1.1,0.6c0.4,0.1,0.8,0.2,1.2,0.2c0.8,0,1.4-0.1,1.9-0.4s1-0.6,1.3-1.1l3.3,2.1c-0.7,1-1.6,1.8-2.7,2.3
		c-1.1,0.5-2.4,0.8-3.9,0.8c-1.1,0-2.1-0.2-3.1-0.5c-1-0.3-1.8-0.8-2.6-1.5c-0.7-0.7-1.3-1.5-1.7-2.4c-0.4-1-0.6-2-0.6-3.3
		c0-1.2,0.2-2.3,0.6-3.2s1-1.8,1.7-2.5c0.7-0.7,1.5-1.2,2.5-1.6c1-0.4,2-0.6,3.1-0.6c1.1,0,2.1,0.2,3,0.5c0.9,0.4,1.7,0.9,2.3,1.6
		c0.6,0.7,1.1,1.5,1.5,2.5S523.8,463.1,523.8,464.3z M519.4,462.5c0-0.8-0.2-1.4-0.7-2c-0.5-0.5-1.2-0.8-2.1-0.8
		c-0.5,0-0.9,0.1-1.3,0.2s-0.7,0.3-1,0.6c-0.3,0.3-0.5,0.6-0.7,0.9c-0.2,0.3-0.3,0.7-0.3,1.1L519.4,462.5L519.4,462.5z"/>
	<path fill="#168D90" d="M535.4,461.2c-0.4-0.4-0.8-0.7-1.4-0.9c-0.5-0.3-1.1-0.4-1.7-0.4c-0.4,0-0.9,0.1-1.2,0.3
		c-0.4,0.2-0.6,0.5-0.6,0.9c0,0.4,0.2,0.7,0.6,0.9c0.4,0.2,1.1,0.4,2,0.6c0.5,0.1,1.1,0.3,1.7,0.5c0.6,0.2,1.1,0.5,1.5,0.8
		s0.8,0.8,1.1,1.3s0.4,1.1,0.4,1.8c0,0.9-0.2,1.7-0.6,2.3c-0.4,0.6-0.9,1.1-1.4,1.5c-0.6,0.4-1.3,0.7-2,0.8
		c-0.7,0.2-1.5,0.3-2.2,0.3c-1.2,0-2.4-0.2-3.5-0.6c-1.1-0.4-2.1-0.9-2.8-1.7l2.7-2.8c0.4,0.5,1,0.9,1.6,1.2c0.6,0.3,1.3,0.5,2,0.5
		c0.4,0,0.8-0.1,1.2-0.3c0.4-0.2,0.6-0.5,0.6-1c0-0.4-0.2-0.8-0.7-1c-0.5-0.2-1.2-0.4-2.2-0.7c-0.5-0.1-1-0.3-1.5-0.5
		c-0.5-0.2-1-0.5-1.4-0.8c-0.4-0.3-0.7-0.7-1-1.2c-0.3-0.5-0.4-1.1-0.4-1.8c0-0.9,0.2-1.6,0.6-2.2c0.4-0.6,0.8-1.1,1.4-1.5
		c0.6-0.4,1.2-0.7,1.9-0.9c0.7-0.2,1.4-0.3,2.1-0.3c1.1,0,2.2,0.2,3.2,0.5c1,0.3,1.9,0.9,2.6,1.5L535.4,461.2z"/>
</g>
<g id="XMLID_448_">
	<g id="XMLID_450_">
		<path fill="#A3216D" d="M60.4,445c-0.5,0-1-0.3-1.2-0.8c-15.1-29.9-39.4-43.4-39.7-43.6c-0.5-0.3-0.8-0.8-0.7-1.4
			c0.1-0.6,0.5-1,1-1.2c3.7-0.9,7.5-1.4,11.1-1.4c9.7,0,18.7,3.3,26.7,9.9c4.2-7.7,22.6-37.5,61.1-53.4c0.6-0.3,1.3,0,1.7,0.6
			c0.3,0.6,0.2,1.3-0.3,1.8c-23.6,19.4-43.7,57.6-58.5,88.7C61.4,444.7,60.9,445,60.4,445C60.4,445,60.4,445,60.4,445z"/>
	</g>
	<g id="XMLID_449_">
		<path fill="#168D90" d="M89.9,471.5H-3c-3,0-5.4-2.4-5.4-5.4v-93c0-3,2.4-5.4,5.4-5.4h64.8v10.8H2.4v82.1h82.1v-41.1h10.8v46.5
			C95.4,469.1,92.9,471.5,89.9,471.5z"/>
	</g>
</g>
</svg>
