<?xml version="1.0" encoding="utf-8"?>
<!-- Generator: Adobe Illustrator 18.0.0, SVG Export Plug-In . SVG Version: 6.00 Build 0)  -->
<!DOCTYPE svg PUBLIC "-//W3C//DTD SVG 1.1//EN" "http://www.w3.org/Graphics/SVG/1.1/DTD/svg11.dtd">
<svg version="1.1" id="Layer_1" xmlns="http://www.w3.org/2000/svg" xmlns:xlink="http://www.w3.org/1999/xlink" x="0px" y="0px"
	 viewBox="365.6 140.7 214 134.1" enable-background="new 365.6 140.7 214 134.1" xml:space="preserve">
<title>@2xNo Activity Icon</title>
<desc>Created with Sketch.</desc>
<g>
	<path id="Shape" fill="#6C7789" d="M459.7,195.9l-3.4-3.4c-0.8-0.8-0.8-2,0-2.8c0.8-0.8,2-0.8,2.8,0l3.4,3.4l3.4-3.4
		c0.8-0.8,2-0.8,2.8,0c0.8,0.8,0.8,2,0,2.8l-3.4,3.4l3.4,3.4c0.8,0.8,0.8,2,0,2.8c-0.8,0.8-2,0.8-2.8,0l-3.4-3.4l-3.4,3.4
		c-0.8,0.8-2,0.8-2.8,0c-0.8-0.8-0.8-2,0-2.8L459.7,195.9z M400.5,195.9l-3.4-3.4c-0.8-0.8-0.8-2,0-2.8c0.8-0.8,2-0.8,2.8,0l3.4,3.4
		l3.4-3.4c0.8-0.8,2-0.8,2.8,0c0.8,0.8,0.8,2,0,2.8l-3.4,3.4l3.4,3.4c0.8,0.8,0.8,2,0,2.8c-0.8,0.8-2,0.8-2.8,0l-3.4-3.4l-3.4,3.4
		c-0.8,0.8-2,0.8-2.8,0c-0.8-0.8-0.8-2,0-2.8L400.5,195.9z M496.2,217.5c0-1.1,0.9-2,2-2c1.1,0,2,0.9,2,2v36.3
		c0,4.5-3.6,8.1-8.1,8.1h-44.5l2.8-1.2l-11.8,11.8c-3.1,3.1-8.2,3.1-11.4,0l-11.7-11.8l2.8,1.2h-44.6c-4.5,0-8.1-3.7-8.1-8.1v-105
		c0-4.5,3.6-8.1,8.1-8.1h118.4c4.5,0,8.1,3.6,8.1,8.1v10.8c0,1.1-0.9,2-2,2c-1.1,0-2-0.9-2-2v-10.8c0-2.3-1.8-4-4-4H373.7
		c-2.3,0-4,1.8-4,4v105c0,2.3,1.8,4,4,4h44.5l11.8,11.8c1.6,1.6,4.2,1.6,5.6,0l11.8-11.8h44.5c2.3,0,4-1.8,4-4L496.2,217.5
		L496.2,217.5z M413.4,225.5c0-1.1,0.9-2,2-2h35c1.1,0,2,0.9,2,2s-0.9,2-2,2h-35C414.4,227.5,413.4,226.6,413.4,225.5z"/>
	<path id="Rectangle-20" fill="#138D90" d="M542.4,218h6.7c16.8,0,30.6-13.7,30.6-30.6s-13.7-30.6-30.6-30.6H520
		c-16.8,0-30.6,13.7-30.6,30.6S503.2,218,520,218h6.7l4.6,4.6c1.8,1.8,4.7,1.8,6.5,0L542.4,218L542.4,218z M508.3,198.2
		c-5.9-0.3-9.2-3.6-9.4-9.8c0.4-6.2,3.6-9.6,9.4-10.1c5.8,0.5,9,3.9,9.4,10.1C517.3,194.7,514.1,198,508.3,198.2L508.3,198.2z
		 M525.8,183.3c4.3,0.4,6.7,2.9,7.1,7.7c-0.4,4.7-2.7,7.1-7.1,7.4c-4.5-0.3-6.9-2.7-7.1-7.4C519.1,186.2,521.4,183.7,525.8,183.3
		L525.8,183.3z M534.6,201.7v-16.1c0-1.3,0.7-2.2,2-2.3c1.1,0.1,1.8,0.7,1.9,1.8c0.7-1.2,2-1.8,3.8-1.9c3.9,0.3,6,2.9,6.5,7.8
		c-0.4,4.6-2.6,7-6.6,7.1c-1.5-0.1-2.7-0.4-3.6-1.2v4.6c-0.1,1.5-0.7,2.2-1.9,2.3C535.2,203.9,534.6,203.1,534.6,201.7L534.6,201.7z
		 M560.1,186c-0.1,1.2-0.7,1.8-1.6,1.9c-0.3,0.1-0.8-0.1-1.3-0.4c-0.9-0.4-1.8-0.7-2.2-0.8c-0.9,0.1-1.3,0.4-1.3,1.1
		c0,0.5,0.8,1.1,2.3,1.6c3.1,1.2,4.6,2.7,4.6,4.6c-0.3,2.8-2.2,4.3-5.6,4.5c-3.4-0.3-5.2-1.2-5.5-2.8c0.1-1.1,0.7-1.8,1.6-1.9
		c0.5,0,1.1,0.3,1.9,0.8c0.8,0.4,1.6,0.7,2.4,0.7c0.9,0.1,1.5-0.3,1.5-1.2c0-0.4-0.8-0.9-2.4-1.5c-2.9-1.2-4.6-2.7-4.6-4.6
		c0.1-2.8,1.9-4.5,5.4-4.6C558.3,183.5,560,184.5,560.1,186L560.1,186z M563.3,190.8v-10.6c0-1.2,0.7-1.8,2-1.9
		c1.2,0.1,1.8,0.8,1.9,1.9v10.6c-0.1,1.2-0.8,1.8-1.9,1.9C564.1,192.6,563.5,191.9,563.3,190.8L563.3,190.8z M565.5,198.2
		c-1.3-0.1-2-0.7-2.2-1.9c0.1-1.3,0.8-2,2.2-2.2c1.3,0.1,2,0.8,2.2,2.2C567.4,197.5,566.7,198.2,565.5,198.2L565.5,198.2z
		 M538.4,190.8c0.1,2.7,1.2,4,3.1,4c1.9-0.1,2.9-1.5,3.1-4c-0.3-2.4-1.2-3.8-3.1-4C539.7,187,538.6,188.3,538.4,190.8L538.4,190.8z
		 M525.8,186.9c-1.9,0.1-2.9,1.5-3.1,4c0.1,2.6,1.2,3.9,3.1,4c1.9-0.1,2.9-1.3,3.1-4C528.6,188.4,527.7,187,525.8,186.9L525.8,186.9
		z M508.3,194.7c3.2-0.1,5.1-2.3,5.2-6.3c-0.3-4-2-6.2-5.2-6.3c-3.2,0.3-5,2.3-5.1,6.3C503.2,192.4,504.9,194.6,508.3,194.7
		L508.3,194.7z"/>
</g>
</svg>
