<?xml version="1.0" encoding="utf-8"?>
<!-- Generator: Adobe Illustrator 16.0.0, SVG Export Plug-In . SVG Version: 6.00 Build 0)  -->
<!DOCTYPE svg PUBLIC "-//W3C//DTD SVG 1.1//EN" "http://www.w3.org/Graphics/SVG/1.1/DTD/svg11.dtd">
<svg version="1.1" id="Layer_1" xmlns="http://www.w3.org/2000/svg" xmlns:xlink="http://www.w3.org/1999/xlink" x="0px" y="0px"
	 width="139.673px" height="128.354px" viewBox="-7.271 663.008 139.673 128.354"
	 enable-background="new -7.271 663.008 139.673 128.354" xml:space="preserve">
<g id="XMLID_448_">
	<g id="XMLID_450_">
		<path fill="#A3216D" d="M67.239,762.663c-0.542,0-1.083-0.325-1.3-0.866c-16.353-32.382-42.67-47.002-42.995-47.219
			c-0.542-0.325-0.867-0.866-0.758-1.517c0.108-0.649,0.542-1.083,1.083-1.3c4.007-0.975,8.123-1.516,12.021-1.516
			c10.505,0,20.252,3.573,28.916,10.722c4.548-8.339,24.476-40.612,66.171-57.832c0.649-0.325,1.408,0,1.841,0.649
			c0.325,0.65,0.217,1.408-0.325,1.949c-25.559,21.011-47.327,62.381-63.355,96.063C68.322,762.338,67.78,762.663,67.239,762.663
			L67.239,762.663z"/>
	</g>
	<g id="XMLID_449_">
		<path fill="#168D90" d="M99.187,791.362H-1.423c-3.249,0-5.848-2.6-5.848-5.849V684.796c0-3.249,2.6-5.849,5.848-5.849h70.178
			v11.696H4.425v88.914h88.914v-44.511h11.696v50.358C105.144,788.763,102.436,791.362,99.187,791.362z"/>
	</g>
</g>
</svg>
