<?xml version="1.0" encoding="utf-8"?>
<!-- Generator: Adobe Illustrator 18.0.0, SVG Export Plug-In . SVG Version: 6.00 Build 0)  -->
<!DOCTYPE svg PUBLIC "-//W3C//DTD SVG 1.1//EN" "http://www.w3.org/Graphics/SVG/1.1/DTD/svg11.dtd">
<svg version="1.1" id="Layer_1" xmlns="http://www.w3.org/2000/svg" xmlns:xlink="http://www.w3.org/1999/xlink" x="0px" y="0px"
	 viewBox="0 0 612 792" enable-background="new 0 0 612 792" xml:space="preserve">
<path fill="#AA2F78" d="M7.1,419.5C2.4,414.8,0,407.8,0,403.1c0-4.7,2.4-11.8,7.1-16.5l33-33c9.4-9.4,23.5-9.4,33,0l2.4,2.4
	l129.5,138.9c4.7,4.7,11.8,4.7,16.5,0l315.4-327.2h2.4l0,0c9.4-9.4,23.5-9.4,33,0l33,33c9.4,9.4,9.4,23.5,0,33l0,0L228.3,624.3
	c-4.7,4.7-9.4,7.1-16.5,7.1s-11.8-2.4-16.5-7.1L11.8,426.6L7.1,419.5L7.1,419.5z"/>
</svg>
